<?xml version="1.0" encoding="utf-8"?>
<!-- Generator: Adobe Illustrator 25.4.1, SVG Export Plug-In . SVG Version: 6.00 Build 0)  -->
<svg version="1.1" id="Layer_1" xmlns="http://www.w3.org/2000/svg" xmlns:xlink="http://www.w3.org/1999/xlink" x="0px" y="0px"
	 viewBox="0 0 590.1 674.4" style="enable-background:new 0 0 590.1 674.4;" xml:space="preserve">
<style type="text/css">
	.st0{fill:#E6ECF4;}
</style>
<g transform="scale(8.324844567775475) translate(10, 10)">
	<g id="SvgjsG90836" transform="matrix(1.0126582278481016,0,0,1.0126582278481016,-15.189873417721524,-10.126582278481015)">
		<path class="st0" d="M40.1,0.8l-35,20v40l35,20l35-20l0,0v-40L40.1,0.8z M40.1,8.5L65,22.7l-6.7,3.8L40.1,16.2L22,26.6l-6.8-3.9
			L40.1,8.5z M54.9,32.4v13.1L43.5,39V25.8L54.9,32.4z M36.8,25.8v13.1l-11.4,6.5v-13L36.8,25.8z M36.8,71.2L11.9,57V28.5l6.7,3.8
			v20.8l18.2,10.4V71.2z M28.7,51.2l11.4-6.5l11.4,6.5l-11.4,6.5L28.7,51.2z M68.4,57L43.5,71.2v-7.7l18.2-10.4V32.4l6.7-3.8V57
			L68.4,57z"/>
	</g>
</g>
</svg>
