<?xml version="1.0" encoding="UTF-8"?><svg id="svg2" xmlns="http://www.w3.org/2000/svg" xmlns:xlink="http://www.w3.org/1999/xlink" viewBox="0 0 1787.69 1588.12" preserveAspectRatio="none"><defs><style>.cls-1{clip-path:url(#clippath);}.cls-2{fill:none;}.cls-2,.cls-3,.cls-4,.cls-5,.cls-6,.cls-7,.cls-8,.cls-9,.cls-10,.cls-11,.cls-12,.cls-13,.cls-14,.cls-15,.cls-16,.cls-17,.cls-18,.cls-19,.cls-20,.cls-21,.cls-22,.cls-23,.cls-24,.cls-25,.cls-26,.cls-27,.cls-28,.cls-29,.cls-30,.cls-31,.cls-32,.cls-33,.cls-34,.cls-35,.cls-36{stroke-width:0px;}.cls-3{fill:url(#linear-gradient);}.cls-37{clip-path:url(#clippath-1);}.cls-38{clip-path:url(#clippath-4);}.cls-39{clip-path:url(#clippath-3);}.cls-40{clip-path:url(#clippath-2);}.cls-41{clip-path:url(#clippath-6);}.cls-42{clip-path:url(#clippath-5);}.cls-4{fill:url(#linear-gradient-4);}.cls-5{fill:url(#linear-gradient-2);}.cls-6{fill:url(#linear-gradient-3);}.cls-7{fill:url(#linear-gradient-7);}.cls-8{fill:url(#linear-gradient-5);}.cls-9{fill:url(#linear-gradient-6);}.cls-10{fill:#7580ed;}.cls-11{fill:#4e5bd4;}.cls-12{fill:#2d0069;}.cls-13{fill:#283655;}.cls-14{fill:#3a49d4;}.cls-15{fill:#1977fc;}.cls-16{fill:#cacfff;}.cls-17{fill:#acb0d9;}.cls-18{fill:#d9d9d9;}.cls-19{fill:#b182ff;}.cls-20{fill:#a8b0ff;}.cls-21{fill:#8f96d9;}.cls-22{fill:#3186ff;}.cls-23{fill:#929cf2;}.cls-24{fill:#848ef8;}.cls-25{fill:#ff94ae;}.cls-26{fill:#ff7596;}.cls-27{fill:#fff;}.cls-28{fill:#ffe4ea;}.cls-29{fill:#e4e6ff;}.cls-30{fill:#ff4e79;}.cls-31{fill:#ffa5c3;}.cls-32{fill:#ffb1c4;}.cls-33{fill:#ffc4c3;}.cls-34{fill:#ffc4c4;}.cls-35{fill:#e9eaff;}.cls-36{fill:#f5c7d5;}</style><clipPath id="clippath"><path class="cls-2" d="m513.62,1273.86c-1.35-.07-2.69-.15-4.05-.21-80.26-3.95-127.26-28.19-127.13-52.16l131.18,52.37"/></clipPath><linearGradient id="linear-gradient" x1="-131.21" y1="1818.59" x2="-130.21" y2="1818.59" gradientTransform="translate(102452.72 497.99) rotate(-83.35) scale(95.79 -55.67)" gradientUnits="userSpaceOnUse"><stop offset="0" stop-color="#283655"/><stop offset="1" stop-color="#1c2843"/></linearGradient><clipPath id="clippath-1"><path class="cls-2" d="m645.69,1291.93c-37.3-6.16-80.83-15.2-132.07-18.07l-131.18-52.37c.05-9.12,6.93-18.2,21.4-26.11l241.85,96.55"/></clipPath><linearGradient id="linear-gradient-2" x1="-131.21" y1="1817.4" x2="-130.21" y2="1817.4" gradientTransform="translate(102452.72 497.99) rotate(-83.35) scale(95.79 -55.67)" gradientUnits="userSpaceOnUse"><stop offset="0" stop-color="#283655"/><stop offset="1" stop-color="#1c2843"/></linearGradient><clipPath id="clippath-2"><path class="cls-2" d="m703.48,1298.01c-17.45,0-36.62-2.58-57.8-6.08l-241.85-96.55c5.73-3.13,12.66-6.08,20.83-8.78,14.43-4.76,28.1-7,47.73-7,26.52,0,63.93,4.08,128.84,11.54,40.77,4.68,80.88,11.79,112.89,20.98-13.24,14.48-10.75,30.39,7.32,37.65,6.24,2.51,13.61,3.7,21.43,3.7,11.71,0,24.4-2.67,35.72-7.56,6.25,9.99,3.41,21.01-11.85,32.91-18.27,14.25-39.11,19.19-63.26,19.19"/></clipPath><linearGradient id="linear-gradient-3" x1="-131.21" y1="1816.06" x2="-130.21" y2="1816.06" gradientTransform="translate(102452.72 497.99) rotate(-83.35) scale(95.79 -55.67)" gradientUnits="userSpaceOnUse"><stop offset="0" stop-color="#a8b0ff"/><stop offset="1" stop-color="#7781c9"/></linearGradient><clipPath id="clippath-3"><path class="cls-2" d="m742.87,1253.46c-7.82,0-15.19-1.19-21.43-3.7-18.07-7.26-20.56-23.17-7.32-37.65,32.22,9.25,56.23,20.62,64.47,33.78-11.32,4.9-24.01,7.56-35.72,7.56"/></clipPath><linearGradient id="linear-gradient-4" x1="-131.21" y1="1813.37" x2="-130.21" y2="1813.37" gradientTransform="translate(102452.72 497.99) rotate(-83.35) scale(95.79 -55.67)" gradientUnits="userSpaceOnUse"><stop offset="0" stop-color="#cacfff"/><stop offset="1" stop-color="#8f98c9"/></linearGradient><clipPath id="clippath-4"><path class="cls-2" d="m727.4,336.85c8.25-4.41,25.89,7.02,36.54,11.98-3.78-15.03-16.88-41.8,2.06-42.47,19.91-.7,18.44,26.04,25.61,40.03,4.85,9.46,11.6,20.81,17.91,29.72,5.15,7.27,10.19,10.75,12.15,18.39,2.89,11.28,0,25.2,0,35.6,0,5.24.64,11.36,0,16.28-.77,5.94-2.4,5.17-7.71,5.5-13.44.84-33.71-5.02-48.76-11.66-5.59-2.46-12.05-5.02-17.34-9.28-12.39-9.96-10.24-16.33-13.36-28-2.38-3.43-3.98-6.96-4.79-10.57-1-3.93-1-7.39,0-10.38-.97-4.91-3.12-8.73-3.81-13.93.08-2.28.52-4.32,1.33-6.12-2.14-3.42-3.59-6.88-4.34-10.38-1.47-6.8.04-12.34,4.51-14.73,3.37-1.8-3.37,1.8,0,0h0Z"/></clipPath><linearGradient id="linear-gradient-5" x1="-127.71" y1="1816.72" x2="-126.71" y2="1816.72" gradientTransform="translate(13570.86 183156.38) scale(100.61 -100.61)" gradientUnits="userSpaceOnUse"><stop offset="0" stop-color="#d4d9ff"/><stop offset="1" stop-color="#e2e6ff"/></linearGradient><clipPath id="clippath-5"><path class="cls-2" d="m647.73,827.48l-16.25-10.2h0c-11.42-7.4-28.8-6.31-48.27,4.93-34.39,19.86-62.27,63.83-62.27,98.23,0,18.9,8.43,30.95,21.73,34.7l-5.19,19.44c-.55,2.07.89,3.73,2.61,4.03l15.04,9.84,17.27-32.66-6.03-1.65c5.37-1.59,11.01-4,16.86-7.38,34.39-19.86,62.27-63.84,62.27-98.23,0-7.56-1.35-14.02-3.81-19.3l6.06-1.75Z"/></clipPath><linearGradient id="linear-gradient-6" x1="-129.88" y1="1817.86" x2="-128.88" y2="1817.86" gradientTransform="translate(314962.45 107094.64) rotate(-67.26) scale(182.08 -182.08)" gradientUnits="userSpaceOnUse"><stop offset="0" stop-color="#f0617b"/><stop offset="1" stop-color="#ff908f"/></linearGradient><clipPath id="clippath-6"><path class="cls-2" d="m1266.43,957.3c4.01,1.69,8.83.91,14.46-2.34,5.63-3.25,10.46-8.04,14.46-14.36,4.01-6.32,6.01-12.3,6.01-17.93s-2-9.3-6.01-10.99c-4.01-1.69-8.83-.91-14.46,2.34-5.64,3.25-10.46,8.04-14.46,14.36-4.01,6.32-6.01,12.3-6.01,17.93s2,9.3,6.01,10.99Zm46.63-73.56c3.23-1.86,5.99-2.31,8.27-1.35,2.28.97,3.43,3.06,3.43,6.29v40.95c0,3.23-1.14,6.65-3.43,10.25-2.29,3.6-5.04,6.34-8.27,8.2l-64.34,37.15c-3.23,1.86-5.99,2.31-8.27,1.35-2.28-.96-3.43-3.06-3.43-6.29v-40.94c0-3.23,1.14-6.65,3.43-10.25,2.29-3.6,5.04-6.34,8.27-8.2l10.24-5.91,2.33-7.56c.58-1.83,1.64-3.73,3.18-5.69,1.54-1.97,3.11-3.42,4.73-4.35l23.4-13.51c1.61-.93,3.19-1.3,4.73-1.11,1.54.19,2.6.87,3.18,2.03l2.33,4.87,10.24-5.91Z"/></clipPath><linearGradient id="linear-gradient-7" x1="-127.52" y1="1815.54" x2="-126.52" y2="1815.54" gradientTransform="translate(12425.36 153784.84) rotate(-30) scale(101.31 -75.98) skewX(23.41)" gradientUnits="userSpaceOnUse"><stop offset="0" stop-color="#d4d9ff"/><stop offset="1" stop-color="#e2e6ff"/></linearGradient></defs><g id="g8"><g id="g10"><path id="path12" class="cls-10" d="m661.69,598.71c0-11.39-4.05-22.9-12.14-34.53-8.09-11.63-17.84-19.93-29.23-24.91-11.39-4.97-21.13-5.18-29.22-.62-8.1,4.56-12.15,12.53-12.15,23.92s4.05,22.9,12.15,34.53c8.09,11.63,17.84,19.93,29.22,24.91,11.39,4.98,21.13,5.18,29.23.62,8.1-4.56,12.14-12.53,12.14-23.92h0Zm-85.69-102.44l4.71-10.5c1.17-2.5,3.31-4.17,6.42-5,3.11-.83,6.3-.53,9.56.9l47.28,20.65c3.27,1.43,6.45,3.91,9.56,7.45,3.11,3.55,5.25,7.08,6.42,10.61l4.71,14.62,20.69,9.04c6.53,2.85,12.1,7.59,16.71,14.23,4.62,6.63,6.93,13.21,6.93,19.74v82.74c0,6.53-2.31,11.09-6.93,13.69-4.62,2.6-10.19,2.47-16.71-.37l-130.02-56.79c-6.52-2.85-12.1-7.59-16.71-14.23-4.62-6.63-6.93-13.21-6.93-19.74v-82.74c0-6.53,2.31-11.09,6.93-13.69,4.62-2.6,10.19-2.47,16.71.38l20.69,9.03"/><path id="path14" class="cls-28" d="m1290.8,689.32l-228.71-88.22c-56.04-23.69-84.06-62.57-84.06-116.67s15.54-104.91,46.62-153.2c31.09-48.29,74.04-88.27,128.86-119.92,15.17-8.76,30.66-15.07,46.44-18.92,15.79-3.85,30.47-5.24,44.05-4.15,13.58,1.09,25.27,2.73,35.06,4.91,9.79,2.19,19.09,5.13,27.9,8.85,8.81-13.89,18.11-27.59,27.91-41.07,9.79-13.49,21.48-28.61,35.05-45.39,13.59-16.79,28.27-32.36,44.05-46.73,15.79-14.37,31.27-25.95,46.44-34.71,54.83-31.65,97.77-41.27,128.85-28.87,31.09,12.4,46.63,45.52,46.63,99.36,0,16.4-2.87,34.95-8.63,55.65-5.75,20.69-12.29,39.28-19.64,55.76-7.33,16.48-15.65,33.21-24.96,50.21-9.29,17-16.09,28.93-20.37,35.81-4.28,6.87-7.65,12-10.09,15.37l-229.09,353.27c-4.4,6.95-9.78,12.26-16.15,15.93-6.36,3.67-11.75,4.58-16.16,2.72"/><path id="path16" class="cls-18" d="m1007.42,1548.4c-164.35-.01-360.58-141.41-674.56-261.52-258.68-98.95-379.75-205.58-316.22-238.26.03.23.05.46.08.69.6,4.81,1.93,9.41,3.89,13.69-3.57,7.82-5,16.61-3.89,25.44,2.14,17.01,13.36,31.52,29.28,37.88l991.73,395.91c10.39,4.16,21.33,6.25,32.51,6.25,9.02,0,17.87-1.36,26.28-4-6.71,9.64-22.31,16.76-48.29,20.83-13.42,2.09-27,3.09-40.83,3.09"/><path id="path18" class="cls-25" d="m1549.3,416.95l-462.9-187.47c-3.46-1.4-7.1-.63-9.67,1.48l-18.11,10.75,14.59,16.15v524.66c0,3.91,2.37,7.43,6,8.89l462.9,186.97c6.31,2.55,13.17-2.09,13.17-8.89V425.84c0-3.91-2.36-7.42-5.99-8.89"/><path id="path20" class="cls-29" d="m1053.65,250.1v544.16c0,3.91,2.37,7.43,6,8.89l462.9,186.97c6.31,2.55,13.19-2.09,13.19-8.89V437.58c0-3.91-2.37-7.42-5.99-8.89l-462.9-187.48c-6.31-2.55-13.19,2.09-13.19,8.89"/><path id="path22" class="cls-26" d="m1053.65,250.1v119.76l482.08,194.71v-127c0-3.91-2.37-7.42-5.99-8.89l-462.9-187.48c-6.31-2.55-13.19,2.09-13.19,8.89"/><path id="path24" class="cls-32" d="m1161.35,344.58c0,22.27-18.05,35.48-40.32,29.52-22.27-5.97-40.32-28.85-40.32-51.12s18.05-35.48,40.32-29.52c22.27,5.97,40.32,28.86,40.32,51.12"/><path id="path26" class="cls-32" d="m1260.42,374.72l-66.29-26.78c-3.73-1.51-6.76-5.76-6.76-9.5s3.03-5.54,6.76-4.03l66.29,26.78c3.74,1.51,6.76,5.76,6.76,9.5s-3.03,5.54-6.76,4.03"/><path id="path28" class="cls-32" d="m1295.45,416.2l-101.33-40.94c-3.73-1.51-6.76-5.76-6.76-9.5s3.03-5.54,6.76-4.03l101.33,40.94c3.74,1.51,6.77,5.76,6.77,9.5s-3.03,5.54-6.77,4.03"/><path id="path30" class="cls-24" d="m1356.76,638.19c0,43.09-34.93,63.91-78.02,46.5-43.09-17.41-78.02-66.45-78.02-109.54s34.93-63.91,78.02-46.5c43.09,17.41,78.02,66.45,78.02,109.54"/><path id="path32" class="cls-24" d="m1390.88,937.36l-224.28-90.62v-69.64c0-61.93,50.21-91.86,112.14-66.83,61.93,25.02,112.14,95.52,112.14,157.45v69.64"/><path id="path34" class="cls-13" d="m1070.25,1528.48c-11.18,0-22.12-2.09-32.51-6.25L46.01,1126.32c-15.92-6.35-27.14-20.87-29.28-37.88-2.14-17.01,5.14-33.85,18.99-43.95l420.42-306.48c11.73-8.55,25.59-13.06,40.11-13.06,8.75,0,17.3,1.66,25.42,4.93l934.77,376.41c14.99,6.03,25.72,19.12,28.71,35,2.99,15.88-2.25,31.97-14.03,43.03l-340.77,320.37c-16.33,15.35-37.67,23.8-60.09,23.8"/><path id="path36" class="cls-13" d="m1070.25,1489.34c-11.18,0-22.12-2.09-32.51-6.25L46.01,1087.18c-15.92-6.35-27.14-20.87-29.28-37.88-2.14-17.01,5.14-33.85,18.99-43.95l420.42-306.48c11.73-8.55,25.59-13.06,40.11-13.06,8.75,0,17.3,1.66,25.42,4.93l934.77,376.41c14.99,6.03,25.72,19.12,28.71,35,2.99,15.88-2.25,31.97-14.03,43.03l-340.77,320.37c-16.33,15.35-37.67,23.8-60.09,23.8"/><path id="path38" class="cls-20" d="m58.44,1018.51l411.53-300.65c12.43-9.06,28.66-11.08,42.93-5.33l934.78,376.41c16,6.45,19.93,27.32,7.36,39.14l-331.88,314.54c-18.19,17.09-44.64,22.11-67.82,12.85L63.6,1059.55c-17.26-6.89-20.18-30.1-5.16-41.05"/><path id="path40" class="cls-16" d="m629.97,871.84c68.75,27.64,69.9,92.84,2.57,145.63-67.33,52.79-177.64,73.19-246.39,45.55-68.75-27.63-69.9-92.84-2.57-145.63,67.33-52.79,177.64-73.19,246.39-45.55"/><path id="path42" class="cls-35" d="m530.46,924.39c24.75,9.95,25.16,33.42.93,52.42-24.24,19-63.94,26.34-88.69,16.4-24.75-9.95-25.16-33.42-.93-52.42,24.23-19,63.94-26.35,88.69-16.4"/><path id="path44" class="cls-35" d="m632.55,1017.47c32.42-25.42,48.91-53.71,49.68-79.3-47.21-3.26-103.68,12.54-141.66,42.32-37.98,29.78-46.43,64.89-25.73,88.93,42.91-8.65,85.29-26.53,117.71-51.95"/><path id="path46" class="cls-16" d="m802.42,954.25l-221.75,173.88c-4.96,3.89-13.08,5.39-18.14,3.35-5.06-2.03-5.15-6.84-.19-10.72l221.75-173.88c4.96-3.89,13.08-5.39,18.14-3.35,5.06,2.04,5.15,6.84.19,10.72"/><path id="path48" class="cls-16" d="m816.52,990.83l-169.63,133.01c-4.96,3.89-13.08,5.39-18.15,3.35-5.06-2.03-5.15-6.84-.19-10.72l169.63-133.01c4.96-3.89,13.08-5.39,18.14-3.35,5.06,2.03,5.15,6.84.19,10.72"/><path id="path50" class="cls-16" d="m1053.65,1033.54l-258.34,202.57c-20.19,15.83-53.26,21.94-73.87,13.66-20.61-8.29-20.96-27.83-.77-43.66l258.34-202.57c20.19-15.83,53.26-21.94,73.87-13.66,20.61,8.29,20.96,27.83.77,43.66"/><path id="path52" class="cls-21" d="m1061.45,1153.57c-29.94,0-60.94-27.74-110.16-39.77l85.49-67.03c55.57,22.51,99.03,58.97,58.38,93.17-11.67,9.82-22.62,13.63-33.71,13.63m-169.67-81.64c-6.14-18.97,4.6-38.85,33.37-48.9,6.53-2.28,12.52-3.47,19.24-3.47,3.89,0,8.02.4,12.63,1.21l-65.24,51.15"/><path id="path54" class="cls-17" d="m951.29,1113.8c-.56-.14-1.12-.27-1.68-.4-32.68-7.68-52.24-24.2-57.83-41.47l65.24-51.15c14.87,2.62,34.76,9.57,67.78,21.43,4.04,1.45,8.03,2.97,11.98,4.57l-85.49,67.03"/><path id="path56" class="cls-18" d="m1479.22,1588.12c-20.2,0-39.97-5.49-60.36-19.52-60.29-41.52,4.93-80.49,70.87-116.32,41.13-22.35,69.2-28.89,91.37-28.89,13.36,0,24.57,2.37,35.24,5.09,69.27,17.69,70.48,89.75-5.83,119.11-50.52,19.43-91.72,40.53-131.29,40.53"/><path id="path58" class="cls-18" d="m564.18,1523.98c-19.09,0-38.3-18.69-69.58-25.47-43.75-9.49-49.07-48.69-13.04-64.16,4.81-2.05,9.14-3.11,14.13-3.11,10.34,0,23.51,4.49,49.58,13.85,38.67,13.87,71.62,40.41,42.42,68.04-8.32,7.88-15.91,10.84-23.51,10.84"/><g id="g60"><g class="cls-1"><g id="g62"><path id="path74" class="cls-3" d="m513.62,1273.86c-1.35-.07-2.69-.15-4.05-.21-80.26-3.95-127.26-28.19-127.13-52.16l131.18,52.37"/></g></g></g><g id="g76"><g class="cls-37"><g id="g78"><path id="path90" class="cls-5" d="m645.69,1291.93c-37.3-6.16-80.83-15.2-132.07-18.07l-131.18-52.37c.05-9.12,6.93-18.2,21.4-26.11l241.85,96.55"/></g></g></g><g id="g92"><g class="cls-40"><g id="g94"><path id="path106" class="cls-6" d="m703.48,1298.01c-17.45,0-36.62-2.58-57.8-6.08l-241.85-96.55c5.73-3.13,12.66-6.08,20.83-8.78,14.43-4.76,28.1-7,47.73-7,26.52,0,63.93,4.08,128.84,11.54,40.77,4.68,80.88,11.79,112.89,20.98-13.24,14.48-10.75,30.39,7.32,37.65,6.24,2.51,13.61,3.7,21.43,3.7,11.71,0,24.4-2.67,35.72-7.56,6.25,9.99,3.41,21.01-11.85,32.91-18.27,14.25-39.11,19.19-63.26,19.19"/></g></g></g><g id="g108"><g class="cls-39"><g id="g110"><path id="path122" class="cls-4" d="m742.87,1253.46c-7.82,0-15.19-1.19-21.43-3.7-18.07-7.26-20.56-23.17-7.32-37.65,32.22,9.25,56.23,20.62,64.47,33.78-11.32,4.9-24.01,7.56-35.72,7.56"/></g></g></g><path id="path124" class="cls-13" d="m970.8,1029.09c-4.92,8.5-20.81,26.18-26.85,32.44-6.04,6.27-15.88,12.08-13.65,19.46,2.24,7.38,20.14,14.99,30.65,10.52,10.51-4.48,22.15-18.57,28.41-23.94,6.26-5.37,15.21-14.32,12.98-25.51-2.24-11.19-5.82-18.35-5.82-18.35l-25.73,5.37"/><path id="path126" class="cls-13" d="m1037.25,1046.09s-5.37,22.82-9.85,31.99c-4.47,9.17-16.55,28.86-14.54,36.47,2.01,7.61,18.79,17,34.01,10.07,15.21-6.93,14.54-34.01,15.66-43.85,1.12-9.84,2.24-25.95,1.57-31.54l-26.85-3.13"/><path id="path128" class="cls-30" d="m964.08,728.23s-5.75,37.78-8.31,79.64c-2.56,41.86,0,70.1,0,70.1,0,0,1.17,83.57,1.17,105.73s4.97,45.84,4.97,45.84c0,0,9.55,6.11,21.39,4.2,11.84-1.91,21.77-9.55,21.77-9.55,0,0-.76-58.06-1.53-83.66-.76-25.59-.76-52.71,1.53-63.79,2.29-11.08,13.37-76.01,13.37-76.01l-4.2-61.13-50.16-11.38"/><path id="path130" class="cls-30" d="m1009.05,806.37s10.83,81.49,14.53,102.48c3.7,20.99,7.34,129.19,8.91,139.76,0,0,14.49,13.71,40.35,1.96,0,0,3.68-69.33,5.09-91.66,1.41-22.34-2.35-48.97-2.35-63.07s9.72-88.82,11.19-118.34c1.47-29.53-.71-44.25-.71-44.25h-77v73.12"/><path id="path132" class="cls-31" d="m935.98,760.98s-8.74,16.31-9.5,28.09c-.76,11.78,6.08,21.9,9.5,30.33,3.42,8.43,11.4,11.85,10.26,2.35-1.14-9.5-7.22-20.52-5.7-23.18,1.52-2.66,3.25-8.36,5.81-8.36s7.92,11,9.42,17.66c1.5,6.66,13.41,9.03,7.96-11.2-5.45-20.23-5.32-35.69-5.32-35.69h-22.42"/><path id="path134" class="cls-15" d="m968.18,546.07s-15.76,9.41-18.42,21.18c-2.66,11.77-6.07,70.62-6.83,81.25-.76,10.63-5.7,29.1-8.35,48.91-2.66,19.81-3.8,63.67-3.8,63.67,0,0,13.14,13.09,29.99,5.5l10.63-51.26-3.22-169.25"/><path id="path136" class="cls-15" d="m984.97,498.07s-4.37.87-7.44-11.07c-3.06-11.94-3.06-21.35-3.06-21.35,0,0-8.53-11.81-7.44-14.87s8.53-.22,11.37-1.97c0,0-10.07-7.05-7.66-17.94.87-3.94,11.37,1.53,15.75,1.53,0,0-1.31-8.53,1.31-10.94,2.62-2.41,18.37,4.59,18.37,4.59,0,0,25.52-3.11,41.56,10.5,7.22,6.12,11.16,15.97,11.16,15.97,0,0,4.37-5.47,7-2.62,2.62,2.84-4.37,12.25-4.37,12.25,0,0,7.22,5.25,3.5,9.62-3.72,4.37-6.56,2.41-6.56,2.41,0,0-.66,21-4.81,27.78-4.15,6.78-8.97,14-13.56,13.34-4.59-.66-14.87-22.97-14.87-22.97l-40.25,5.73"/><path id="path138" class="cls-12" d="m484.65,1439.58s-5.92,8.23,0,12.48c5.92,4.27,15.86,7.96,21.26,7.96s19.31,12.12,34.37,16.85c15.05,4.73,34.37,8.29,39.76-.01,5.4-8.32-1.7-13.15-1.7-13.15l-93.68-24.13"/><path id="path140" class="cls-12" d="m766.84,1253.95s4.9,3.08,9.1,4.24c4.2,1.16,6.87-2.5,9.87-10.31,3.01-7.81,2.81-15.14,4.55-19.38,1.74-4.24,16.01-20.63,21.21-37.03,5.21-16.39-1.75-27.18-4.64-27.38s-14.07,21.01-14.07,21.01l-26.03,68.85"/><path id="path142" class="cls-31" d="m543.21,1247.8s16.56,13.75,19.82,23.11c3.25,9.35-.79,28.46-7.92,47.57-7.13,19.11-34.37,98.8-34.37,98.8h-30.09s4.07-59.36,6.91-76.03c2.85-16.67,10.16-45.57,12.6-50.64l-21.95-11.98s3.46-19.37,54.99-30.83"/><path id="path144" class="cls-31" d="m572.38,1223.05s32.93.13,41.47,0c8.54-.12,13.42,9.95,35.78,14.47,22.36,4.52,72.37,3.17,83.76,4.86,11.39,1.69,18.51,1.18,18.51,1.18v-30.79s-72.78-13.65-89.76-18.62c-16.98-4.96-24.3-12.69-38.12-15.54-13.82-2.85-34.56-7.32-34.56-7.32l-17.08,51.76"/><path id="path146" class="cls-31" d="m521.82,1070.54s8.69,32.07,11.69,36.75c3.01,4.68,24.05,22.05,34.75,36.08,10.69,14.03,19.38,26.06,19.38,26.06l-37.09-6.15s-24.06-12.9-32.41-27.6c-8.35-14.7-19.71-31.41-19.71-31.41v-26.39l23.39-7.35"/><path id="path148" class="cls-22" d="m493.54,984.98s19.02,2.61,25.81,20.5c6.79,17.89,10.62,61.55,10.62,61.55,0,0-13.35,20.82-33.09,20.11l-3.34-102.16"/><path id="path150" class="cls-11" d="m378.26,1205.56s-1.37,25.59,11.36,48.12c12.73,22.52,90.09,34.7,99.88,36.94,0,0,17.83-28.25,44.7-34.6,14.05-3.32,20.91-.38,20.91-.38,0,0-4.3-12.07-17.63-23.5-13.33-11.43-57.77-37.99-57.77-37.99l-101.45,11.41"/><path id="path152" class="cls-11" d="m529.01,1232.14l56.46,5.39s5.88-49.52,13.71-70.54c0,0-42.65-10.31-67.39-16.33-24.75-6.02-33.35-5.66-33.35-5.66l-27.82,53.86,58.4,33.29"/><path id="path154" class="cls-22" d="m425.24,992.33c-22.3,14.55-40.25,33.06-49.46,47.81-9.22,14.76-7.28,77.81-6.31,115.65.97,37.83,4.37,55.29,4.37,55.29,0,0,45.59,23.77,93.61-3.39,48.02-27.16,39.59-63.06,39.59-63.06,0,0-9.03-10.19-6.6-34.44,2.42-24.25,7.76-94.58,1.94-110.59-5.82-16.01-9.7-18.43-26.19-15.04-16.49,3.39-50.94,7.76-50.94,7.76"/><path id="path156" class="cls-22" d="m1481.77,1517.2s-31.4-1.79-41.65-4.09c-10.25-2.31-26.4-4.61-28.45,4.09-2.05,8.72,15.89,16.67,32.29,21.79,16.41,5.13,46.68,20.32,57.59,12.56,4.57-3.27.6-26.95.6-26.95l-20.37-7.4"/><path id="path158" class="cls-22" d="m1707.02,1416.32s12.12,25.43,16.04,29.84c3.92,4.4,17.15,14.21,18.12-7.11.99-21.32-2.44-81.08-11.27-84.01-8.81-2.95-24,.97-24,.97l1.11,60.31"/><path id="path160" class="cls-22" d="m1720.7,1383c.96,16.64,8.17,68.37,13.84,69.23,3.37-.4,6.21-3.72,6.64-13.17.99-21.32-2.44-81.08-11.27-84.01-10.17.76-10.17,11.32-9.21,27.96"/><path id="path162" class="cls-31" d="m1466.65,1357.25s-2.25,19.83-2.25,31.55,14.43,100.96,14.43,115.84-2.25,19.37-2.25,19.37l24.97,4.96s4.32-30.76,6.57-52.11c2.25-21.36-1.35-62.83-4.05-78.6-2.71-15.77,10.99-49.12,10.99-49.12l-48.4,8.11"/><path id="path164" class="cls-31" d="m1583.81,1353.76s12.92,27.15,22.55,35.59c9.64,8.43,74.81-6.19,84.93-6.19l15.73,33.16s5.75-1.03,4.77-13.76c-.99-12.75-7.35-36.75-5.88-46.55,0,0-30.29,2.29-45.96,1.31-15.68-.97-24.59,3.59-24.59,3.59l-9.8-23.03-41.76,15.88"/><path id="path166" class="cls-30" d="m1504.57,1195.2s-11.01,4.24-17.05,22.6c-6.05,18.36-45.76,91.7-55.81,108.01-10.05,16.31,9.65,39.84,25.27,43.15,15.61,3.29,38.48-8.95,56.2-7.07,17.73,1.88,22.16,16.01,43.16,17.89,20.99,1.88,29.05-15.47,40.96-23.08,16.96-10.83,38.61-6.12,55.56-16,16.96-9.89,20.25-18.84,16.01-32.97-4.24-14.13-58.85-114.89-71.57-116.78-12.71-1.89-92.72,4.24-92.72,4.24"/><path id="path168" class="cls-13" d="m195.12,921.05l38.07,5.19c12.49,1.7,25.16-1.46,35.39-8.83l119.38-86.06c6.73-4.85,7.22-14.7.99-20.19l-24.08-21.25c-2.63-2.32-6.52-2.51-9.37-.46l-163.76,118.05c-5.51,3.97-3.35,12.63,3.38,13.55"/><path id="path170" class="cls-25" d="m378.03,421.24c0-1.57-.21-3.06-.54-4.5l11.77,1.85-18.56-12.9c-.86-.71-1.78-1.35-2.75-1.91l-.15-.1v.02c-5.57-3.18-12.62-3.8-19.12-.55l-234.88,117.5c-13.59,6.8-22.16,20.7-22.14,35.89l.21,133.49c0,6.29,2.79,11.59,6.95,15.21l-.03.02.3.21c.99.83,2.03,1.58,3.15,2.21l19.6,13.72-1.05-13.1c.5-.23,1-.45,1.48-.73l205.95-118.65,50.05,18.89v-68.57l-.04.02-.21-118.01"/><path id="path172" class="cls-26" d="m397.81,552.94l-.21-118.01c-.03-15.06-15.88-24.84-29.35-18.1l-234.87,117.5c-13.59,6.8-22.16,20.7-22.14,35.89l.21,133.49c.03,15.59,16.9,25.32,30.4,17.54l205.95-118.65,50.05,18.89v-68.57l-.04.02"/><path id="path174" class="cls-24" d="m918.07,427.41c0-66.63-54.01-145.83-120.64-176.89-32.15-14.99-61.33-16-82.96-5.59v-.04l-.37.21c-3.29,1.61-6.41,3.47-9.32,5.6l-19.7,11.82,8.28-.9c-10.52,13-16.58,31.01-16.58,53.28,0,66.63,54.01,145.83,120.64,176.9,12.53,5.84,24.61,9.56,35.97,11.32l22.19,21.04-3.29,4.12,18.08,34.28,17.07-9.94c.6-.14,1.15-.46,1.57-.91h0c.61-.68.92-1.64.63-2.72l-13.67-49.68c25.75-10.12,42.09-35.28,42.09-71.9"/><path id="path176" class="cls-11" d="m856.41,511.05c25.75-10.12,42.09-35.28,42.09-71.89,0-66.63-54.01-145.83-120.64-176.9-66.63-31.07-120.64-2.24-120.64,64.39s54.01,145.83,120.64,176.9c12.53,5.84,24.61,9.57,35.98,11.32l51.43,48.77c2.15,2.03,5.61-.04,4.83-2.89l-13.67-49.68"/><path id="path178" class="cls-31" d="m980.81,471.56s0,17.72,2.63,28.43c2.63,10.72,12.03,27.34,19.9,28.22,7.87.87,26.9-7.66,32.15-13.56,5.25-5.91,8.53-28.43,8.53-34.34s-11.81-24.06-11.81-24.06l-30.84-6.34s-21,9.67-20.56,21.65"/><path id="path180" class="cls-31" d="m1034.83,505.25s3.28,6.34,9.19,2.84c5.91-3.5,12.85-13.27,6.34-19-6.51-5.73-11.59,2.16-11.59,2.16l-3.94,14"/><path id="path182" class="cls-15" d="m978.4,479.88s10.72-3.28,16.84-16.62c0,0,5.47,10.5,20.34,14.65,14.87,4.16,18.21,3.89,19.25,13.78,1.03,9.89,5.46,12.47,9.07,1.97,3.61-10.5,6.02-25.59,6.02-25.59l-16.84-21.43-36.96-1.31-17.72,11.59v22.97"/><path id="path184" class="cls-31" d="m1009.03,535.43l-12.91,11.59,6.45,37.18,8.2,9.62,27.34-21.43,12.9-30.18-5.03-10.94-36.96,4.16"/><path id="path186" class="cls-31" d="m1002.46,523.62s3.5,14.22,3.5,20.56v12.25s9.19,5.69,22.53,0c13.34-5.69,17.5-18.15,17.5-18.15,0,0-5.1-12.64-7.36-29.5l-36.16,14.85"/><path id="path188" class="cls-15" d="m1024.23,555.77c-4.92,3.06-6.67,20.12-10.06,29.09-3.39,8.97-4.7,15.53-4.7,15.53l38.28-4.37,1.09-41.78h-20.56l-4.05,1.53"/><path id="path190" class="cls-15" d="m1005.73,548.77s.23,10.07,1.33,17.28c1.09,7.22,9.65,19.03,9.65,19.03l-7.25,15.31-18.81-9.19-6.12-41.56,17.93-5.03,3.27,4.15"/><path id="path192" class="cls-23" d="m993.92,556.79s-2.41,12.58,2.2,23.84,9.68,23.84,28.11,11.27c18.43-12.58,23.93-19.65,27.86-35.11,3.93-15.46,6.11-17.83,6.11-17.83,0,0,39.03,24.62,44.46,36.7,2.36,5.24-5.7,164.63-12.71,168.13-7,3.5-53.26,13.31-89.33,3.5-36.07-9.81-38.88-9.11-40.63-31.53-1.75-22.42-2.1-85.31-3.5-100.1-1.4-14.8-1.05-37.12,3.85-53.11,4.9-15.98,7.71-17.73,14.71-19.84,7.01-2.1,22.55-3.76,22.55-3.76l-3.68,17.83"/><path id="path194" class="cls-31" d="m1065.42,746.21s-17.42,27.67-22.43,31.37c-5.01,3.69-21.64,3.69-25.33,3.69s-12.93-9.77-12.93-9.77l33.36-32.46,26.07-5.81,1.27,12.97"/><path id="path196" class="cls-13" d="m1025.73,730.79l21.14,15.12c3.39,2.43,3.51,7.43.24,10.02l-44.44,35.06c-2.21,1.75-5.32,1.8-7.59.13l-23.9-17.57c-3.47-2.55-3.39-7.76.15-10.2l47.2-32.61c2.17-1.5,5.06-1.48,7.21.06"/><path id="path198" class="cls-31" d="m1054.07,728.23s-17.42,5.54-21.11,8.18-14.78,18.42-18.47,20.69c-3.69,2.27-2.9,5.13,0,6.73,2.9,1.61,10.08-2.41,14.93-6.73s6.74-5.38,12-6.7c5.26-1.32,18.72.53,22.15-9.5,3.43-10.03-9.5-12.67-9.5-12.67"/><path id="path200" class="cls-15" d="m1097.66,574.94c4.93-1.09,9.81,20.01,14.36,31.72,4.55,11.72,19.97,70.92,18.57,86.33-1.4,15.41-31.88,38.53-40.29,44.14-8.41,5.61-25.57,19.97-25.57,19.97,0,0,.68-25.57-23.31-28.73,0,0,14.2-13.31,22.61-22.07s22.32-21.02,22.02-23.12c-.3-2.1-16.42-27.67-15.37-52.19,1.05-24.52,11.21-52.55,26.97-56.05"/><path id="path202" class="cls-14" d="m965.15,642.09l10.23,15.42,9.15-15.42-9.69-17.81-9.69,17.81"/><path id="path204" class="cls-30" d="m1009.46,605.28l19.96,38.29-24.7,29.98-20.2-31.46,24.93-36.81"/><path id="path206" class="cls-14" d="m1041.42,666l13.21-19.38-13.21-19.38-12,16.33,12,22.43"/><path id="path208" class="cls-14" d="m1004.73,673.55l-12.43,18.7,12.43,19,13.72-18.85-13.72-18.85"/><path id="path210" class="cls-13" d="m405.96,980.07s6.41,15.8,10.43,14.98c4.02-.83,11.41-8.82,11.41-8.82l58.44-46.14,7.3-2.72s1.03-9.27,0-16.05c0,0,5.31-1.23,2.54-10.15-2.77-8.92-25.82-23.69-54.14-23.69-12.2,0-22.15,8.31-22.15,8.31,0,0,2.46-8.31-2.46-8.31s-14.46,10.46-12.92,17.84c0,0-6.73-4.7-11.07,6.15-2.46,6.15,0,11.07,0,11.07,0,0-9.54,6.77-7.38,23.38s18.02,29.74,19.99,34.14"/><path id="path212" class="cls-31" d="m422.26,963.15s-5.54-7.69-9.84-7.38c-4.31.31-15.61,13.9,0,25.84,5.23,4,9.84,1.85,9.84,1.85,0,0,11.69,14.46,23.38,17.53,11.69,3.08,20.3,3.38,28.3-4.31,8-7.69,12.3-22.15,12.3-34.14v-29.84s-11.07-31.68-43.68-22.45c-32.61,9.23-26.89,35.35-26.89,35.35l6.59,17.56"/><path id="path214" class="cls-13" d="m412.76,946.77s5.19,21.61,9.81,21.61,16.8-25.99,21.01-34.07c0,0,24.2,12.23,25.43,10.38,1.23-1.85,2.15-6.77,0-15.07,0,0,17.53,19.99,21.22,17.23,3.69-2.77,6.67-13.35-4.82-29.44-11.48-16.09-24.2-17.21-24.2-17.21l-34.66,8.36-18.45,28.81,4.65,9.4"/><path id="path216" class="cls-31" d="m463.48,996.99s-4,14.77-3.69,22.76c.31,8,3.08,9.54-14.46,10.77-17.53,1.23-30.45-15.99-30.45-18.15s6.46-25.84,6.46-31.99l42.14,16.61"/><path id="path218" class="cls-31" d="m418.88,1003.02s-10.15,9.35-6.77,16.12c3.38,6.77,32.3,29.22,51.37,17.84,19.07-11.38-6.15-31.5-6.15-31.5l-38.45-2.46"/><path id="path220" class="cls-31" d="m356.56,1124.12s-3.09,34.64-3.09,50.73,7.41,22.31,30.31,25.98c22.91,3.67,86.83,0,86.83,0v-25.36s-69.5-10.74-73.83-12.18c-4.33-1.43,1.24-30.42,1.24-30.42l-41.45-8.75"/><path id="path222" class="cls-31" d="m470.61,1175.47s14.79-6.37,23.14-8.04c8.35-1.67,17.71,1.69,23.72,4.02,6.01,2.33,12.36,5.67,14.7,5.67s10.93,10.71-6.35,9.69c-5.68-.33-16.71-6.01-19.71-4.34-3.01,1.67-8.02,4.01-4.34,9.35,3.68,5.35,12.7,11.03,19.71,12.36,7.02,1.34,22.22,4.37,21.72,9.35-.33,3.34-13.23,2.34-13.23,2.34,0,0-.47,3.98-5.81,4.83-5.35.85-10.36,4.83-24.06,0s-29.49-19.88-29.49-19.88v-25.36"/><path id="path224" class="cls-30" d="m490.66,1417.28s-3.79,8.31-6,22.31c-1.09,6.89,21.78,13.79,27.95,15.97,6.17,2.17,31.21,21.92,48.27,21.31,17.06-.63,18.97-5.71,20.56-12.96,1.58-7.27-12.21-12.6-18.74-16.83-6.53-4.23-34.53-19.08-41.95-29.8h-30.09"/><path id="path226" class="cls-30" d="m503.53,1417.28s-4.36-9.27-1.81-16.17c2.54-6.89,26.33-2.53,27.29,2.19s-5.61,17.15-5.61,17.15l-19.86-3.16"/><path id="path228" class="cls-30" d="m747.83,1217.35s-14.49-5.28-14.8-9.89c-.3-4.61,1.81-13.97,4.83-17.59,3.02-3.62,8.57,4.23,11.23,9.06,2.66,4.83,4.77,9.97,4.77,9.97l-6.04,8.45"/><path id="path230" class="cls-30" d="m749.1,1212.24s5.07-9.38,12.93-16.33c7.85-6.95,20.53-21.16,25.06-24.62,4.53-3.46,7.55-12.83,12.38-11.31,4.83,1.51,9.66,1.21,9.36,15.4-.3,14.19-16.91,36.84-22.95,48.61-6.04,11.78-6.92,31.93-18.56,31.36-11.64-.56-21.54-4.16-23.8-8.11-2.26-3.95,4.43-12.08,5.58-19.33,1.15-7.25-1.45-9.62,0-15.68"/><path id="path232" class="cls-31" d="m1515.05,960.68s-3.71,18.16-1.88,42.93,4.03,27.52,14.49,26.97c10.45-.55,18.71-4.4,18.71-4.4v-48.43l-31.32-17.06"/><path id="path234" class="cls-31" d="m1532.05,989.96s-8.92-7.25-11.15,0c-2.23,7.25,1,21.98,8.61,21.74,7.61-.24,10.61-7.25,10.61-7.25l-8.08-14.49"/><path id="path236" class="cls-31" d="m1530.17,1025.52s2.75,5.09,5.56,20.76c2.81,15.67,2.81,19.59,2.81,19.59l23.11-4.7-5.48-35.65h-26"/><path id="path238" class="cls-31" d="m1540.13,1048.63s-6.41,5.97-9.96,8.23c0,0,8.76,9.9,13.47,21.16,4.69,11.26,24.43,13.32,24.43,13.32l23.36-33.69-18.01-11.95-33.28,2.94"/><path id="path240" class="cls-22" d="m1506.04,1168.83l-1.47,26.37s18.85,11.3,42.36,11.77c23.52.47,50.36-16.01,50.36-16.01l-2.83-26.84-88.43,4.71"/><path id="path242" class="cls-15" d="m1557.05,1205.03s-10.69,32.67-13.67,70.87c0,0,11.84-12.47,15.48-14.55,0,0,6.96,9.36,10.37,16.63,0,0,2.65-12.47,2.12-34.04s-2.12-43.35-2.12-43.35l-12.19,4.45"/><path id="path244" class="cls-15" d="m1577.32,1196.77s12.24,22.47,19.21,38.58c6.97,16.11,15.55,32.74,15.55,32.74,0,0-15.08-4.68-20.53-9.35,0,0-3.37,12.21-3.37,22.09,0,0-10.13-32.75-14.04-49.38-3.89-16.63-5.59-31.71-5.59-31.71l8.77-2.97"/><path id="path246" class="cls-30" d="m1530.17,1056.86s-12.13,5.53-17.51,9.01c-5.37,3.48-18.79,43.76-24.11,57.43-5.31,13.66,11.15,23.53,12.99,33.4,1.83,9.87-2.16,12.15,4.2,16.7,6.35,4.55,32.03,11.39,55.05,8.73,23.04-2.66,37.08-12.91,38.23-19.36,1.13-6.45,0-15.39,2.65-29.9,2.65-14.51,5.31-27.61,4.56-45.73-.76-18.12-9.12-32.55-9.12-32.55,0,0-45.45,14.41-66.95,2.27"/><path id="path248" class="cls-31" d="m1428.09,986.74l16.52-5.03s17.36,61.25,20.6,65.89c3.25,4.64,19.72,12.87,36.77,18.27,17.07,5.4,35.57,5.67,33.75,27.34-1.84,21.67-52.41.52-64.95-6.07-12.53-6.59-32.48-17.73-33.41-28.4-.92-10.67-9.28-71.99-9.28-71.99"/><path id="path250" class="cls-31" d="m1530.17,1076.3c4.45,6.43,8.17,8.5,5.56,24.45s-11.92,20.64-20.68,17.9c-8.75-2.74-12.89-18.75-9.01-29.15,3.87-10.4,24.13-13.2,24.13-13.2"/><path id="path252" class="cls-31" d="m1428.09,986.74s-20.73-22.17-23-31.23c-2.27-9.07,4.53-21.53,6.23-26.07,1.71-4.53,2.15-7.93,5.04-6.8,2.89,1.13,2.89,3.97,2.89,3.97,0,0,1.99-8.5,6.24-7.65,4.25.85,15.29.28,13.88,13.03-1.41,12.75,2.44,18.11,5.95,23.23,3.51,5.12,5.96,19.25-.71,26.49l-16.52,5.03"/><path id="path254" class="cls-13" d="m1418.88,877.77l2.45,76.29c.07,1.96,1.85,3.4,3.79,3.04l34.56-6.39c1.56-.29,2.67-1.67,2.63-3.25l-2.47-76.29c-.07-1.96-1.85-3.4-3.79-3.04l-34.56,6.39c-1.56.29-2.67,1.67-2.61,3.25"/><path id="path256" class="cls-31" d="m1439.93,975.63s6.53-4.26,5.11-13.6c-1.43-9.34-5.17-12.18-2.45-17.57,2.73-5.38,3.15-15.92,0-15.87-3.13.05-3.17.58-5.87,8.77-2.68,8.19-9.69,14.02-10,22.31-.31,8.29.37,17.25,3.28,17.92,2.92.67,9.93-1.97,9.93-1.97"/><path id="path258" class="cls-31" d="m1595.36,1121.84s23.91,33.45,35.01,33.45,20.53-6.54,6.51-28.75c-14.03-22.21-37.99-58.03-37.99-58.03l-7.47,22.82,3.93,30.51"/><path id="path260" class="cls-31" d="m1640.94,1071.74s-11.45,37.53-15.28,47.65c-3.81,10.12,15.28,31.53,15.28,31.53,0,0,8.12-.88,12.41-23.79,4.29-22.92,5.25-50.82,5.25-50.82l-17.67-4.56"/><path id="path262" class="cls-31" d="m1663.56,1073.08c2.51-3.18,12.29-11.8,12.8-19.83.51-8.03-8.28-15.06-8.28-15.06,0,0,2.51-14.56,3.76-21.59,1.25-7.03.25-10.8-3.52-8.53-3.76,2.26-5.27,17.82-7.28,26.35-2,8.54-4.27,1.76-4.35-3.3,0,0,.95-15.22.29-19.59-.65-4.36-5.67-6.38-6.89,4.83-1.24,11.21-.63,28.67-5.88,32.45-5.25,3.78-2.07-4.35-2.07-9.63s-4.01-8.03-5.27-6.28c-1.25,1.76-2.01,12.47-3.77,15.9-1.75,3.43,1.21,11.76,3.77,16.49,1.88,3.48,4.07,6.44,4.07,6.44l17.67,4.56s2.65-.31,4.95-3.22"/><path id="path264" class="cls-31" d="m1502.14,1524.6l-20.37-7.4s-22.32-1.27-35.47-3.05h0c-.56-.08-1.11-.16-1.63-.23-6.8-.76-10.52,1.99-4.93,7.55,6.01,5.99,27.28,11.68,43.17,14.6,13.36,2.45,18.96-.96,20.41-2.12-.48-5.12-1.19-9.35-1.19-9.35"/><path id="path266" class="cls-22" d="m1561.86,1200.72s-5.37,28.71-13.52,34.45c-8.15,5.74-13.52,4.07-17.79,1.3-4.25-2.78-8.01-11.49-10.03-24.27l38.11-32.79,3.23,21.31"/><path id="path268" class="cls-22" d="m1577.32,1198.86s6.41,12.04,17.16,20.38c10.73,8.34,19.92,7.04,21.25,1.67,1.33-5.37,3.12-17.7,0-24.13-3.11-6.43-38.41-19.95-38.41-19.95v22.04"/><path id="path270" class="cls-15" d="m1560.38,1179.23s-6.67-.5-21.48,10.59c-14.83,11.09-20.89,20.9-17.41,24.05,3.47,3.15,18.71-10.74,26.48-19.63,7.79-8.89,12.41-15.01,12.41-15.01"/><path id="path272" class="cls-15" d="m1577.32,1176.82s12.33,13.23,23.64,19.95c11.29,6.72,20.75,4.46,10.19-6.17-10.56-10.63-23.19-13.78-33.83-13.78"/><path id="path274" class="cls-22" d="m1566.3,1174.64c-8.36,1.6-9.17,5.85-8.84,15.96.33,10.11,2.43,15.33,6.33,14.3,3.89-1.03,6.59-2.33,6.41-10.48-.19-8.15.27-20.57-3.91-19.78"/><path id="path276" class="cls-22" d="m1571.88,1173.48c2.77-.14,7-.24,7.11,4.51.11,4.75,2.68,19.72-1.67,22.61-4.33,2.89-8.41,1.14-8.77-.86-.37-1.99.35-18.22,0-21.26-.36-3.03,2.21-4.95,3.33-5"/><path id="path278" class="cls-13" d="m1523.25,930.41s-20.13,18.71-17.21,36.32c2.91,17.61,15.44,10.46,23.48,23.67,8.04,13.21,16.31,58.89,16.85,78.7.55,19.81,2.75,46.78,34.67,47.88,31.92,1.1,46.23-26.41,48.99-34.67,2.75-8.25-11.56-31.37-11.56-39.62s8.21-6.73,8.79-21.8c.57-15.07-13.19-18.92-13.19-35.43s-10.73-68.24-47.76-68.24c-21.04,0-38,7.78-43.05,13.21"/><path id="path280" class="cls-22" d="m380.14,1042.29c12.88,2.8,27.32,16.94,27.97,44.85.65,27.91,0,51.19,0,51.19,0,0-20.47,16.49-39.5,7.76-19.03-8.73-20.48-16.97-20.48-16.97,0,0,11.16-59.18,16.49-70.33,5.34-11.16,11.61-17.34,15.52-16.49"/><path id="path282" class="cls-31" d="m470.61,1175.47s14.79-6.37,23.14-8.04c8.35-1.67,17.71,1.69,23.72,4.02,6.01,2.33,12.36,5.67,14.7,5.67s10.93,10.71-6.35,9.69c-5.68-.33-16.71-6.01-19.71-4.34-3.01,1.67-8.02,4.01-4.34,9.35,3.68,5.35,12.7,11.03,19.71,12.36,7.02,1.34,22.22,4.37,21.72,9.35-.33,3.34-13.23,2.34-13.23,2.34,0,0-.47,3.98-5.81,4.83-5.35.85-10.36,4.83-24.06,0s-29.49-19.88-29.49-19.88v-25.36"/><path id="path284" class="cls-13" d="m500.73,1186.98l-7.06,9.37c-2.5,3.32-.62,8.1,3.46,8.83l65.81,11.82c2.35.42,4.71-.7,5.87-2.8l9.01-16.39c1.8-3.27-.07-7.35-3.72-8.13l-61.04-13.02c-2.04-.43-4.15.31-5.47,1.92l-6.86,8.39"/><path id="path286" class="cls-31" d="m506.12,1182.47c3.01-1.67,14.03,4.01,19.71,4.34,17.27,1.02,8.69-9.69,6.35-9.69s-8.69-3.34-14.7-5.67c-6.01-2.33-15.37-5.69-23.72-4.02-.34.07-.7.15-1.05.24l-7.62,14.83,16.22,3.47c1.14-1.57,3.25-2.63,4.82-3.5"/><path id="path288" class="cls-22" d="m1024.23,555.77s5.36-2.19,7.98,5.69c2.63,7.87,8.97,16.84,14.87,16.84s6.13-7.63,8.97-19.35c2.84-11.71,3.5-18.93,1.09-22.43-2.41-3.5-15.3-11.43-15.3-11.43,0,0,2.4,12.3-7.01,20.39-9.41,8.09-10.61,10.28-10.61,10.28"/><path id="path290" class="cls-22" d="m1005.74,530.18s-7.44,3.5-10.72,11.37c-3.28,7.87-7,23.62-5.47,29.53,1.53,5.91,3.28-10.5,9.84-15.53,6.56-5.03,6.72-6.36,6.56-10.28s-.22-15.09-.22-15.09"/><path id="path292" class="cls-36" d="m152.83,607.48c-4.68,0-7.82-3.23-7.82-9.02,0-8.63,6.99-19.66,15.62-24.64l173.31-94.37c2.84-1.64,5.5-2.42,7.8-2.42,4.68,0,7.82,3.23,7.82,9.02,0,8.63-6.99,19.66-15.62,24.64l-173.31,94.37c-2.84,1.64-5.51,2.42-7.8,2.42"/><path id="path294" class="cls-36" d="m152.83,661.46c-4.68,0-7.82-3.23-7.82-9.02,0-8.63,6.99-19.66,15.62-24.64l138.81-74.22c2.84-1.64,5.5-2.42,7.8-2.42,4.67,0,7.82,3.24,7.82,9.02,0,8.63-6.99,19.66-15.62,24.64l-138.81,74.22c-2.84,1.64-5.51,2.42-7.8,2.42"/><path id="path296" class="cls-13" d="m173.07,934.29c8.7-6.34,15.82-14.09,27.54-12.5,11.72,1.6-6.07-10.91-6.07-10.91l-21.48,13.23v10.17"/><path id="path298" class="cls-13" d="m372.72,796.83c-2.37-2.09-5.09-4.37,1.71-9.33l-13.01.69,6.5,10.73,4.79-2.08"/><path id="path300" class="cls-13" d="m1485.89,1147.34v-36.01l-6.08,8.06-3.35,25.58,9.43,2.37"/><path id="path302" class="cls-31" d="m1696.25,286.01c.24,14.2-11.08,25.91-25.28,26.15-14.21.24-25.92-11.09-26.15-25.29-.24-14.2,11.08-25.91,25.28-26.15,14.21-.23,25.92,11.09,26.15,25.29"/><path id="path304" class="cls-33" d="m495.24,286.01c.24,14.2-11.09,25.91-25.29,26.15-14.2.24-25.91-11.09-26.15-25.29-.24-14.2,11.09-25.91,25.29-26.15,14.2-.23,25.91,11.09,26.14,25.29"/><path id="path306" class="cls-19" d="m161.1,823.5l-9.25.15-.15-9.25c-.06-3.84-3.23-6.91-7.08-6.85-3.85.06-6.91,3.23-6.85,7.08l.15,9.25-9.25.15c-3.84.06-6.91,3.23-6.84,7.08.06,3.84,3.23,6.91,7.08,6.85l9.25-.15.15,9.25c.06,3.84,3.23,6.91,7.08,6.85,3.85-.06,6.91-3.23,6.85-7.08l-.15-9.25,9.25-.15c3.84-.06,6.91-3.23,6.85-7.08-.06-3.85-3.23-6.91-7.08-6.85"/><path id="path308" class="cls-27" d="m1780.61,554.72l-9.24.15-.16-9.25c-.07-3.84-3.23-6.91-7.08-6.85-3.84.06-6.91,3.23-6.84,7.08l.15,9.25-9.24.15c-3.84.06-6.91,3.23-6.84,7.08.05,3.84,3.23,6.91,7.07,6.85l9.25-.15.15,9.25c.07,3.84,3.24,6.91,7.08,6.85,3.85-.06,6.91-3.23,6.85-7.08l-.16-9.25,9.24-.15c3.85-.06,6.92-3.23,6.85-7.08-.07-3.84-3.24-6.91-7.08-6.85"/><g id="g310"><g class="cls-38"><g id="g312"><path id="path324" class="cls-8" d="m727.4,336.85c8.25-4.41,25.89,7.02,36.54,11.98-3.78-15.03-16.88-41.8,2.06-42.47,19.91-.7,18.44,26.04,25.61,40.03,4.85,9.46,11.6,20.81,17.91,29.72,5.15,7.27,10.19,10.75,12.15,18.39,2.89,11.28,0,25.2,0,35.6,0,5.24.64,11.36,0,16.28-.77,5.94-2.4,5.17-7.71,5.5-13.44.84-33.71-5.02-48.76-11.66-5.59-2.46-12.05-5.02-17.34-9.28-12.39-9.96-10.24-16.33-13.36-28-2.38-3.43-3.98-6.96-4.79-10.57-1-3.93-1-7.39,0-10.38-.97-4.91-3.12-8.73-3.81-13.93.08-2.28.52-4.32,1.33-6.12-2.14-3.42-3.59-6.88-4.34-10.38-1.47-6.8.04-12.34,4.51-14.73,3.37-1.8-3.37,1.8,0,0"/></g></g></g><g id="g326"><g class="cls-42"><g id="g328"><path id="path340" class="cls-9" d="m647.73,827.48l-16.25-10.2h0c-11.42-7.4-28.8-6.31-48.27,4.93-34.39,19.86-62.27,63.83-62.27,98.23,0,18.9,8.43,30.95,21.73,34.7l-5.19,19.44c-.55,2.07.89,3.73,2.61,4.03l15.04,9.84,17.27-32.66-6.03-1.65c5.37-1.59,11.01-4,16.86-7.38,34.39-19.86,62.27-63.84,62.27-98.23,0-7.56-1.35-14.02-3.81-19.3l6.06-1.75"/></g></g></g><path id="path342" class="cls-30" d="m558.32,964.92c-13.29-3.75-21.73-15.8-21.73-34.7,0-34.39,27.88-78.37,62.27-98.23,34.39-19.86,62.27-8.07,62.27,26.32s-27.88,78.37-62.27,98.23c-6.47,3.73-12.71,6.35-18.57,7.91l-21.69,22.98c-2.31,2.44-6.35.19-5.48-3.06l5.19-19.44"/><path id="path344" class="cls-34" d="m596.85,927l-22.95-8.85c-5.62-2.38-8.44-6.28-8.44-11.71s1.56-10.53,4.68-15.37c3.12-4.85,7.43-8.86,12.93-12.04,1.52-.88,3.08-1.51,4.66-1.9,1.59-.39,3.06-.52,4.42-.41,1.36.11,2.54.27,3.52.49s1.91.51,2.8.89c.88-1.39,1.82-2.77,2.8-4.12.98-1.35,2.16-2.87,3.52-4.55,1.36-1.68,2.84-3.25,4.42-4.69,1.58-1.44,3.14-2.6,4.66-3.48,5.5-3.17,9.81-4.14,12.93-2.9,3.12,1.24,4.68,4.57,4.68,9.97,0,1.65-.29,3.51-.87,5.59-.58,2.08-1.23,3.94-1.97,5.59-.74,1.65-1.57,3.33-2.51,5.04s-1.61,2.9-2.04,3.59c-.43.69-.77,1.21-1.01,1.54l-22.99,35.45c-.44.7-.98,1.23-1.62,1.6-.64.37-1.18.46-1.62.27"/><path id="path346" class="cls-24" d="m1338.68,852.1l5.49.77-12.74-12.69c-.8-.88-1.63-1.71-2.5-2.49h-.01s0-.01,0-.01c-13.9-12.38-37.32-12.27-63.88,3.06-42.66,24.63-77.24,79.18-77.24,121.84,0,15.29,4.46,26.96,12.13,34.53l13.02,13.04-2.75-6.11c14,6.03,33.4,3.58,54.84-8.81,8.02-4.63,15.76-10.32,23.03-16.79l37.8-3.61-10.54-27.28c16.49-23.69,26.94-50.71,26.94-74.16,0-8.15-1.27-15.26-3.6-21.29"/><path id="path348" class="cls-11" d="m1329.03,961.24c16.49-23.69,26.95-50.71,26.95-74.16,0-42.66-34.59-57.28-77.25-32.65-42.66,24.63-77.24,79.18-77.24,121.84s34.58,57.28,77.24,32.65c8.02-4.63,15.76-10.32,23.03-16.79l33.17-3.17c2.32-.22,3.79-2.6,2.95-4.77l-8.86-22.95"/><g id="g350"><g class="cls-41"><g id="g352"><path id="path364" class="cls-7" d="m1266.43,957.3c4.01,1.69,8.83.91,14.46-2.34,5.63-3.25,10.46-8.04,14.46-14.36,4.01-6.32,6.01-12.3,6.01-17.93s-2-9.3-6.01-10.99c-4.01-1.69-8.83-.91-14.46,2.34-5.64,3.25-10.46,8.04-14.46,14.36-4.01,6.32-6.01,12.3-6.01,17.93s2,9.3,6.01,10.99Zm46.63-73.56c3.23-1.86,5.99-2.31,8.27-1.35,2.28.97,3.43,3.06,3.43,6.29v40.95c0,3.23-1.14,6.65-3.43,10.25-2.29,3.6-5.04,6.34-8.27,8.2l-64.34,37.15c-3.23,1.86-5.99,2.31-8.27,1.35-2.28-.96-3.43-3.06-3.43-6.29v-40.94c0-3.23,1.14-6.65,3.43-10.25,2.29-3.6,5.04-6.34,8.27-8.2l10.24-5.91,2.33-7.56c.58-1.83,1.64-3.73,3.18-5.69,1.54-1.97,3.11-3.42,4.73-4.35l23.4-13.51c1.61-.93,3.19-1.3,4.73-1.11,1.54.19,2.6.87,3.18,2.03l2.33,4.87,10.24-5.91"/></g></g></g><path id="path366" class="cls-13" d="m512.9,712.52c-14.27-5.75-30.5-3.73-42.93,5.33L58.44,1018.51c-15.02,10.95-12.1,34.15,5.16,41.05l22.24,8.88,465.81-340.31-38.75-15.6"/><path id="path368" class="cls-13" d="m1447.68,1088.93l-41.51-16.71-390.11,367.57,39.28,15.68c23.18,9.25,49.63,4.24,67.82-12.85l331.88-314.54c12.57-11.82,8.64-32.7-7.36-39.14"/></g></g></svg>