<?xml version="1.0" encoding="UTF-8"?><svg id="svg2" xmlns="http://www.w3.org/2000/svg" viewBox="0 0 1289.02 1376.56" preserveAspectRatio="none"><defs><style>.cls-1{fill:#f6f5fc;}.cls-1,.cls-2,.cls-3,.cls-4,.cls-5,.cls-6,.cls-7,.cls-8,.cls-9,.cls-10,.cls-11,.cls-12,.cls-13,.cls-14,.cls-15,.cls-16,.cls-17,.cls-18,.cls-19,.cls-20,.cls-21,.cls-22,.cls-23,.cls-24{stroke-width:0px;}.cls-2{fill:#f9486e;}.cls-3{fill:#f9c5d8;}.cls-4{fill:#f7d5e2;}.cls-5{fill:#f8f8ff;}.cls-6{fill:#5e19f4;}.cls-7{fill:#7b67f4;}.cls-8{fill:#4821b5;}.cls-9{fill:#11057c;}.cls-10{fill:#440ae5;}.cls-11{fill:#201d1e;}.cls-12{fill:#cfc9f7;}.cls-13{fill:#daf9fa;}.cls-14{fill:#e2e0fc;}.cls-15{fill:#bebdf9;}.cls-16{fill:#bab5f7;}.cls-17{fill:#fe617c;}.cls-18{fill:#ef3566;}.cls-19{fill:#edeaf9;}.cls-20{fill:#fff5f9;}.cls-21{fill:#e8e8f9;}.cls-22{fill:#e6e4f2;}.cls-23{fill:#fce0e9;}.cls-24{fill:#f4f4f4;}</style></defs><g id="g8"><g id="g10"><path id="path12" class="cls-1" d="m673.69,1331.11l70.72-40.83,70.72,40.83-70.76,40.85-70.68-40.85"/><path id="path14" class="cls-13" d="m738.16,1259.89l39.96-23.07,39.95,23.07-39.98,23.08-39.93-23.08"/><path id="path16" class="cls-20" d="m0,1075.19l70.72-40.83,70.72,40.83-70.76,40.85L0,1075.19"/><path id="path18" class="cls-13" d="m96.08,991.54l39.96-23.07,39.95,23.07-39.98,23.08-39.93-23.08"/><path id="path20" class="cls-20" d="m680.8,694.86l70.72-40.83,70.71,40.83-70.76,40.85-70.68-40.85"/><path id="path22" class="cls-1" d="m745.27,623.64l39.95-23.07,39.95,23.07-39.98,23.08-39.93-23.08"/><path id="path24" class="cls-13" d="m974.73,819.26l70.72-40.83,70.72,40.83-70.76,40.85-70.68-40.85"/><path id="path26" class="cls-1" d="m1177.26,943.05l39.96-23.07,39.95,23.07-39.98,23.08-39.93-23.08"/><path id="path28" class="cls-20" d="m985.53,1136.77l70.72-40.83,70.71,40.83-70.76,40.85-70.68-40.85"/><path id="path30" class="cls-11" d="m751.48,978.47c-.85.54-1.64,1.06-2.45,1.62.56-.42,1.21-.85,1.86-1.28l.59-.35"/><path id="path32" class="cls-11" d="m754.49,976.6c-.99.63-2.02,1.24-3.01,1.87.6-.4,1.2-.8,1.84-1.17.24-.15.5-.34.75-.49.15-.09.25-.14.43-.21"/><path id="path34" class="cls-1" d="m656.41,804.36c-29.58-2.88-58.3-3.1-85.19-.72,42.39-13.93,87.56-23.39,133.27-27.75l-48.08,28.47Zm-119.91,71.01l-54.38-32.93c37.39-17.63,88.71-25.08,146.15-21.41l-91.77,54.34Zm-116.39,68.88c-5.43-34.44,7.7-65.14,37.61-87.31l54.27,32.97-91.88,54.34Zm-76.12,45.09c7.77-27.24,24.04-54.16,47.72-79.35-4.25,16.05-4.17,33.18.29,50.96l-48.01,28.39Zm411.24-216.22h.07c36.56-.43,71.91,2.55,105.05,8.89l16.23-17.53c-35.63-6.77-73.71-10-113.29-9.5l.07-.04c-108.29,1.26-219.06,30.23-305.4,79.46l-.58.36c-.68.36-1.33.72-1.98,1.08-1.44.83-2.92,1.66-4.32,2.48-.5.29-1.05.61-1.55.94l-.65.4c-.29.18-.57.36-.83.54-1.01.65-2.02,1.22-3.02,1.87-.43.25-.83.54-1.22.79-.39.25-.79.54-1.22.83.29-.22.57-.43.9-.65-82.63,51-131.86,116.75-135.14,181.31-1.22,23.64,3.74,46.46,14.72,67.87l29.4-9.5c-10.22-19.87-14.79-41.1-13.68-63.02l.04-.04c.07-1.94.22-3.89.43-5.87l58.77-34.8c6.95,17.27,17.85,34.44,32.32,51.18l27.93-11.59c-14.86-17.27-25.73-34.98-32.28-52.62-.36-.97-.68-1.94-1.01-2.95l105.09-62.22,46.43,28.11,24.51-14.5-46.42-28.11,105.01-62.19c1.66.18,3.27.4,4.93.65,29.37,4.1,58.8,10.8,87.49,19.9l19.69-16.59c-27.78-8.85-56.32-15.58-85.11-19.94l58.81-34.8c3.31-.11,6.59-.18,9.82-.22"/><path id="path36" class="cls-1" d="m479.65,1101.79l13.58,5.53-6.92-8.13-36.85-50.02,13.02-7.71,82.57,22.94,13.61,4.39-9.09-8.48-40.65-46.35,15.51-9.18,57.61,68.83-14.06,8.33-86.75-23.65-8.4-2.88,4.7,5.06,37.66,52.72-14.06,8.33-114.26-35.29,15.43-9.13,77.35,24.69"/><path id="path38" class="cls-1" d="m658.55,995.85l13.58,5.53-6.92-8.13-36.85-50.01,13.02-7.71,82.57,22.94,13.61,4.39-9.08-8.48-40.65-46.35,15.51-9.18,57.61,68.83-14.06,8.33-86.75-23.65-8.4-2.88,4.71,5.06,37.66,52.71-14.06,8.32-114.26-35.29,15.43-9.13,77.35,24.69"/><path id="path40" class="cls-1" d="m837.46,889.92l13.58,5.53-6.92-8.13-36.85-50.01,13.01-7.71,82.57,22.94,13.61,4.39-9.08-8.48-40.66-46.35,15.51-9.18,57.61,68.83-14.06,8.33-86.75-23.65-8.4-2.87,4.7,5.06,37.66,52.71-14.06,8.32-114.26-35.29,15.43-9.13,77.35,24.69"/><path id="path42" class="cls-1" d="m973.51,1062.07c4.25-16.09,4.17-33.18-.29-50.96l48.01-28.39c-7.77,27.24-24.04,54.16-47.72,79.35h0Zm-66,53.05l-54.27-33,91.88-54.31c5.43,34.44-7.67,65.14-37.61,87.31h0Zm-170.55,35.88l91.77-54.31,54.38,32.89c-37.39,17.67-88.71,25.12-146.15,21.41h0Zm-76.22,45.17l48.08-28.47c29.58,2.88,58.3,3.1,85.18.72-42.39,13.93-87.56,23.39-133.27,27.75h0Zm366.29-316.34l-29.4,9.5c10.22,19.87,14.79,41.1,13.68,63.02h-.03c-.07,1.98-.22,3.92-.43,5.9l-58.77,34.8c-6.95-17.27-17.85-34.44-32.32-51.18l-27.93,11.59c14.86,17.27,25.73,34.98,32.28,52.61.36.97.68,1.94,1.01,2.95l-105.09,62.22-46.43-28.11-24.51,14.5,46.43,28.07-105.01,62.22c-1.66-.22-3.28-.43-4.93-.65-29.37-4.1-58.81-10.8-87.49-19.9l-19.69,16.59c27.78,8.85,56.32,15.55,85.11,19.9l-58.8,34.84c-3.31.11-6.59.18-9.83.18l-.07.04c-36.57.43-71.91-2.56-105.05-8.89l-16.23,17.49c35.63,6.8,73.7,10.04,113.29,9.54l-.07.04c108.29-1.26,219.06-30.23,305.4-79.46l.58-.36c.68-.36,1.33-.72,1.98-1.08,1.44-.83,2.91-1.66,4.32-2.48.5-.29,1.04-.61,1.55-.97l.65-.36c.29-.18.57-.36.83-.54,1.01-.65,2.01-1.26,3.02-1.87.18-.14.4-.25.58-.36,83.2-51.1,132.83-117.11,136.11-181.92,1.22-23.64-3.74-46.46-14.72-67.87"/><path id="path44" class="cls-16" d="m675.04,1363.36l-.9-.52-315.45-182.12,1.8-3.11,314.55,181.61,374.25-216.04-141.7-81.82,283.37-163.59-328.8-189.8.05-82.86h3.6s-.05,80.78-.05,80.78l332.4,191.89-283.38,163.59,141.71,81.82-381.45,220.18"/><path id="path46" class="cls-6" d="m1149.46,937.74v.06c0,3.66-1.83,7.31-5.45,9.43l-25.09,14.47-41.33,23.9-28.4,16.39c-8.01,4.63-17.91,4.63-25.91,0l-28.28-16.33-41.46-23.93-25.06-14.47c-3.66-2.08-5.45-5.77-5.45-9.46v-.06c.03-3.63,1.83-7.25,5.45-9.36l95.21-54.98c7.79-4.51,17.37-4.51,25.13,0l95.21,54.95c3.59,2.08,5.42,5.74,5.45,9.39"/><path id="path48" class="cls-2" d="m1149.46,937.81v47.73c.06,3.69-1.76,7.44-5.45,9.55l-94.83,54.73c-8.01,4.63-17.91,4.63-25.91,0l-94.8-54.73c-3.63-2.11-5.42-5.74-5.45-9.36v-47.92c0,3.69,1.8,7.38,5.45,9.46l25.06,14.47,41.46,23.93,28.28,16.33c8.01,4.63,17.91,4.63,25.91,0l28.4-16.39,41.33-23.9,25.09-14.47c3.63-2.11,5.45-5.77,5.45-9.43"/><path id="path50" class="cls-15" d="m951.2,921.39v17.07c0,3.44-4.11,6.24-9.19,6.24s-9.2-2.8-9.2-6.24v-17.07c0,3.44,4.12,6.25,9.2,6.25s9.19-2.8,9.19-6.25"/><path id="path52" class="cls-14" d="m951.2,921.39c0,3.44-4.11,6.25-9.19,6.25s-9.2-2.8-9.2-6.25,4.12-6.25,9.2-6.25,9.19,2.8,9.19,6.25"/><path id="path54" class="cls-15" d="m1045.45,972.23v17.07c0,3.44-4.11,6.24-9.19,6.24s-9.2-2.8-9.2-6.24v-17.07c0,3.45,4.12,6.24,9.2,6.24s9.19-2.8,9.19-6.24"/><path id="path56" class="cls-14" d="m1045.45,972.23c0,3.45-4.11,6.24-9.19,6.24s-9.2-2.8-9.2-6.24,4.12-6.24,9.2-6.24,9.19,2.8,9.19,6.24"/><path id="path58" class="cls-15" d="m1045.45,868.9v17.07c0,3.44-4.11,6.25-9.19,6.25s-9.2-2.8-9.2-6.25v-17.07c0,3.44,4.12,6.24,9.2,6.24s9.19-2.8,9.19-6.24"/><path id="path60" class="cls-14" d="m1045.45,868.9c0,3.44-4.11,6.24-9.19,6.24s-9.2-2.8-9.2-6.24,4.12-6.25,9.2-6.25,9.19,2.8,9.19,6.25"/><path id="path62" class="cls-15" d="m1139.7,919.74v17.07c0,3.44-4.11,6.25-9.19,6.25s-9.2-2.8-9.2-6.25v-17.07c0,3.44,4.12,6.24,9.2,6.24s9.19-2.8,9.19-6.24"/><path id="path64" class="cls-14" d="m1139.7,919.74c0,3.44-4.11,6.24-9.19,6.24s-9.2-2.8-9.2-6.24,4.12-6.25,9.2-6.25,9.19,2.8,9.19,6.25"/><path id="path66" class="cls-23" d="m956.68,988.72c0,3.77-1.41,6.83-3.16,6.83s-3.16-3.06-3.16-6.83,1.42-6.83,3.16-6.83,3.16,3.06,3.16,6.83"/><path id="path68" class="cls-23" d="m977.36,999.33c0,3.77-1.42,6.83-3.16,6.83s-3.16-3.06-3.16-6.83,1.41-6.83,3.16-6.83,3.16,3.06,3.16,6.83"/><path id="path70" class="cls-23" d="m998.05,1011.83c0,3.77-1.42,6.83-3.16,6.83s-3.16-3.06-3.16-6.83,1.42-6.83,3.16-6.83,3.16,3.06,3.16,6.83"/><path id="path72" class="cls-23" d="m1115.82,987.77c0,3.77,1.41,6.83,3.16,6.83s3.16-3.06,3.16-6.83-1.42-6.83-3.16-6.83-3.16,3.06-3.16,6.83"/><path id="path74" class="cls-23" d="m1095.14,998.38c0,3.77,1.41,6.83,3.16,6.83s3.16-3.06,3.16-6.83-1.41-6.83-3.16-6.83-3.16,3.06-3.16,6.83"/><path id="path76" class="cls-23" d="m1074.45,1010.89c0,3.77,1.42,6.83,3.16,6.83s3.16-3.06,3.16-6.83-1.41-6.83-3.16-6.83-3.16,3.06-3.16,6.83"/><path id="path78" class="cls-6" d="m1011.28,1195.13v.06c0,3.24-1.62,6.48-4.83,8.36l-22.25,12.83-36.64,21.19-25.19,14.53c-7.1,4.11-15.88,4.11-22.98,0l-25.07-14.48-36.76-21.22-22.22-12.83c-3.24-1.85-4.83-5.12-4.83-8.39v-.06c.03-3.21,1.62-6.43,4.83-8.3l84.42-48.75c6.9-4,15.4-4,22.28,0l84.41,48.72c3.19,1.84,4.81,5.09,4.83,8.33"/><path id="path80" class="cls-2" d="m1011.28,1195.19v42.32c.06,3.27-1.56,6.6-4.83,8.47l-84.08,48.52c-7.1,4.11-15.88,4.11-22.98,0l-84.05-48.52c-3.21-1.87-4.81-5.09-4.83-8.3v-42.49c0,3.27,1.59,6.54,4.83,8.39l22.22,12.83,36.76,21.22,25.07,14.48c7.1,4.11,15.88,4.11,22.98,0l25.19-14.53,36.64-21.19,22.25-12.83c3.21-1.87,4.83-5.11,4.83-8.36"/><path id="path82" class="cls-15" d="m835.49,1180.63v15.14c0,3.05-3.65,5.54-8.15,5.54s-8.16-2.48-8.16-5.54v-15.14c0,3.05,3.65,5.54,8.16,5.54s8.15-2.48,8.15-5.54"/><path id="path84" class="cls-14" d="m835.49,1180.63c0,3.05-3.65,5.54-8.15,5.54s-8.16-2.48-8.16-5.54,3.65-5.54,8.16-5.54,8.15,2.48,8.15,5.54"/><path id="path86" class="cls-15" d="m919.06,1225.71v15.14c0,3.05-3.64,5.54-8.15,5.54s-8.16-2.48-8.16-5.54v-15.14c0,3.05,3.65,5.54,8.16,5.54s8.15-2.48,8.15-5.54"/><path id="path88" class="cls-14" d="m919.06,1225.71c0,3.05-3.64,5.54-8.15,5.54s-8.16-2.48-8.16-5.54,3.65-5.54,8.16-5.54,8.15,2.48,8.15,5.54"/><path id="path90" class="cls-15" d="m919.06,1134.09v15.14c0,3.05-3.64,5.54-8.15,5.54s-8.16-2.48-8.16-5.54v-15.14c0,3.05,3.65,5.54,8.16,5.54s8.15-2.48,8.15-5.54"/><path id="path92" class="cls-14" d="m919.06,1134.09c0,3.05-3.64,5.54-8.15,5.54s-8.16-2.48-8.16-5.54,3.65-5.54,8.16-5.54,8.15,2.48,8.15,5.54"/><path id="path94" class="cls-15" d="m1002.63,1179.16v15.14c0,3.05-3.64,5.54-8.15,5.54s-8.16-2.48-8.16-5.54v-15.14c0,3.05,3.65,5.54,8.16,5.54s8.15-2.48,8.15-5.54"/><path id="path96" class="cls-14" d="m1002.63,1179.16c0,3.05-3.64,5.54-8.15,5.54s-8.16-2.48-8.16-5.54,3.65-5.54,8.16-5.54,8.15,2.48,8.15,5.54"/><path id="path98" class="cls-23" d="m840.34,1240.32c0,3.35-1.25,6.06-2.8,6.06s-2.8-2.71-2.8-6.06,1.26-6.06,2.8-6.06,2.8,2.71,2.8,6.06"/><path id="path100" class="cls-23" d="m858.68,1249.73c0,3.35-1.25,6.06-2.8,6.06s-2.8-2.71-2.8-6.06,1.25-6.06,2.8-6.06,2.8,2.71,2.8,6.06"/><path id="path102" class="cls-1" d="m987.36,1314.31c0,3.35-1.26,6.06-2.8,6.06s-2.8-2.71-2.8-6.06,1.25-6.06,2.8-6.06,2.8,2.71,2.8,6.06"/><path id="path104" class="cls-23" d="m981.45,1239.49c0,3.35,1.25,6.06,2.8,6.06s2.8-2.71,2.8-6.06-1.25-6.06-2.8-6.06-2.8,2.71-2.8,6.06"/><path id="path106" class="cls-23" d="m963.11,1248.89c0,3.35,1.26,6.06,2.8,6.06s2.8-2.71,2.8-6.06-1.25-6.06-2.8-6.06-2.8,2.71-2.8,6.06"/><path id="path108" class="cls-23" d="m944.77,1259.98c0,3.35,1.25,6.06,2.8,6.06s2.8-2.71,2.8-6.06-1.26-6.06-2.8-6.06-2.8,2.71-2.8,6.06"/><path id="path110" class="cls-23" d="m874.22,1259.98c0,3.35-1.26,6.06-2.8,6.06s-2.8-2.71-2.8-6.06,1.26-6.06,2.8-6.06,2.8,2.71,2.8,6.06"/><path id="path112" class="cls-6" d="m379.76,1113.84v31.86c0,37.68-50.83,68.22-113.49,68.22s-113.46-30.54-113.46-68.22v-31.86c0,5.48,1.07,10.82,3.12,15.93,11.94,30.01,56.81,52.29,110.34,52.29s98.43-22.28,110.37-52.29c2.05-5.11,3.12-10.45,3.12-15.93"/><path id="path114" class="cls-1" d="m379.76,1113.84c0,5.48-1.07,10.82-3.12,15.93-11.94,30.01-56.84,52.29-110.37,52.29s-98.4-22.28-110.34-52.29c-2.05-5.11-3.12-10.45-3.12-15.93,0-37.68,50.8-68.22,113.46-68.22s113.49,30.54,113.49,68.22"/><path id="path116" class="cls-6" d="m347.69,1085.25v22.85c0,1.48-.11,2.96-.33,4.38-3.68,25-38.58,44.55-81.07,44.55s-77.39-19.56-81.07-44.55c-.22-1.42-.34-2.9-.34-4.38v-22.85c0,3.93.75,7.76,2.23,11.41.59,1.51,1.31,2.99,2.12,4.41,10.96,19.28,41.32,33.12,77.05,33.12s66.09-13.84,77.05-33.12c.81-1.42,1.53-2.9,2.12-4.41,1.45-3.65,2.23-7.48,2.23-11.41"/><path id="path118" class="cls-1" d="m347.67,1085.25c0,3.92-.76,7.74-2.23,11.41-8.57,21.52-40.78,37.54-79.17,37.54s-70.57-16.01-79.14-37.54c-1.48-3.67-2.23-7.49-2.23-11.41,0-10.87,5.9-20.91,15.91-29.08,4.53-3.71,9.93-6.98,16.02-9.79,13.68-6.33,30.84-10.08,49.45-10.08,5.18,0,10.22.29,15.12.86,15.62,1.73,29.62,6.15,40.7,12.45,15.76,8.93,25.59,21.59,25.59,35.63"/><path id="path120" class="cls-1" d="m232.8,1195c0,4.18-1.74,7.57-3.88,7.57s-3.88-3.39-3.88-7.57,1.74-7.57,3.88-7.57,3.88,3.39,3.88,7.57"/><path id="path122" class="cls-1" d="m270.73,1199.03c0,4.18-2.4,7.57-5.35,7.57s-5.36-3.39-5.36-7.57,2.4-7.57,5.36-7.57,5.35,3.39,5.35,7.57"/><path id="path124" class="cls-1" d="m307.52,1195.22c0,4.18-2.05,7.57-4.58,7.57s-4.58-3.39-4.58-7.57,2.05-7.57,4.58-7.57,4.58,3.39,4.58,7.57"/><path id="path126" class="cls-8" d="m347.69,1116.88c0,3.91-.78,7.76-2.23,11.41-8.57,21.54-40.79,37.52-79.17,37.52s-70.61-15.99-79.17-37.52c-1.48-3.65-2.23-7.51-2.23-11.41,0-1.48.11-2.96.34-4.41,3.68,25,38.55,44.55,81.07,44.55s77.39-19.56,81.07-44.55c.22,1.45.33,2.93.33,4.41"/><path id="path128" class="cls-8" d="m286.58,913.76c-2.81-1.98-5.87-3.45-9.14-4.43-15.8-4.68-36.2,2.41-52.97,20.33-23.93,25.55-31.35,63.48-16.59,84.75.14.18.25.36.4.54-.36-.22-.68-.47-1.05-.72-2.55-2.02-4.86-4.46-6.87-7.34-14.75-21.27-7.34-59.2,16.59-84.75,16.77-17.92,37.18-25.01,52.98-20.33,6.55,1.91,12.31,5.9,16.66,11.95"/><path id="path130" class="cls-8" d="m338.19,966.81c-.86-.61-1.91-1.01-3.09-1.11l-1.48-.11-3.09-.25-2.02-.18-27.75-2.27c.29-1.47.54-2.91.72-4.35.11-.83.22-1.65.29-2.48l21.23,1.76,4.57.36c1.4.14,2.59.65,3.56,1.48l.43.43.18.22,6.44,6.51"/><path id="path132" class="cls-2" d="m285.36,961.59c-1.01,7.67-3.92,15.69-8.49,23.03-2.12,3.46-4.61,6.73-7.45,9.75-14.68,15.69-33.51,19.15-44.41,9.03-1.19-1.08-2.3-2.34-3.27-3.78-.25-.36-.47-.72-.68-1.08-9.11-14.61-3.92-39.62,11.95-56.57,10.8-11.52,23.83-16.45,34.3-14.25,2.34.5,4.57,1.33,6.59,2.55,2.59,1.55,4.89,3.67,6.8,6.41,4.57,6.55,6.01,15.47,4.68,24.9h0Zm54.34,6.77c-.4-.58-.86-1.04-1.4-1.48l-.11-.07c-.86-.61-1.91-1.01-3.09-1.11l-1.48-.11-3.09-.25-2.02-.18-27.75-2.27c.29-1.47.54-2.91.72-4.35.11-.83.22-1.65.29-2.48,1.37-12.96-.9-25.08-7.23-34.19-2.27-3.27-4.97-5.97-7.95-8.1-2.81-1.98-5.87-3.45-9.14-4.43-15.8-4.68-36.2,2.41-52.97,20.33-23.93,25.55-31.35,63.48-16.59,84.75.14.18.25.36.4.54,1.91,2.66,4.1,4.93,6.48,6.8,16.3,12.6,42.54,7.02,63.23-15.08,5.9-6.3,10.8-13.35,14.61-20.73l35.05,2.91c5,.43,10.72-4.43,12.81-10.83,1.22-3.85.87-7.38-.75-9.68"/><path id="path134" class="cls-21" d="m281.38,1037.17c-1.26,2.95-2.74,5.87-4.5,8.67-2.12,3.45-4.61,6.73-7.45,9.75-14.68,15.69-33.51,19.15-44.41,9.03-1.19-1.08-2.3-2.34-3.28-3.78-.25-.36-.47-.72-.68-1.08-2.41-3.85-3.78-8.42-4.25-13.39-6.08,2.81-11.48,6.08-16.02,9.79.9,7.27,3.24,13.93,7.09,19.47.15.18.25.36.4.54,1.91,2.66,4.1,4.93,6.48,6.8,16.3,12.6,42.54,7.02,63.23-15.08,5.9-6.3,10.8-13.35,14.61-20.73l29.48,2.45c-11.09-6.3-25.09-10.72-40.7-12.45"/><path id="path136" class="cls-1" d="m675.06,568.59c0,18.1-9.64,34.84-25.3,43.87L86.57,937.62c-5.58,3.24-11.84,2.88-16.77.11l-.22-.11c-3.28-1.87-5.94-4.82-7.38-8.49-.76-1.91-1.15-3.99-1.15-6.23V375.05c0-13.96,7.45-26.85,19.54-33.83L641.37,17.43l8.6-4.96c1.19-.69,2.41-1.19,3.63-1.59,3.92-1.15,7.92-.79,11.41.76,5.72,2.52,10.01,8.16,10.01,15.29l.03,541.66"/><path id="path138" class="cls-21" d="m218.28,585.38h0c0,16.82,18.21,27.32,32.78,18.91l238.63-137.77c17.45-10.07,28.19-28.69,28.19-48.84h0c0-16.27-17.62-26.44-31.72-18.31l-240.75,138.99c-16.79,9.69-27.13,27.62-27.12,47.01"/><path id="path140" class="cls-17" d="m356.65,599.43l.02,20.58c0,5.31,5.75,8.62,10.35,5.97l51.96-30.03c4.74-2.74,7.67-7.8,7.67-13.28l.02-22.41c0-4.06-4.39-6.6-7.9-4.57l-55.31,31.93c-4.22,2.44-6.82,6.94-6.81,11.81"/><path id="path142" class="cls-6" d="m362.8,390.31c-2.13,3.44-4.62,6.71-7.46,9.74-16.29,17.4-37.63,19.75-47.69,5.27-10.04-14.46-5.01-40.29,11.28-57.69,16.27-17.38,37.63-19.75,47.68-5.29,4.57,6.57,6.01,15.5,4.69,24.91-1.03,7.68-3.94,15.69-8.49,23.05h0Zm58.22-18.93l-34.33-2.83c3.05-15.43,1.22-30.31-6.21-41.02-14.77-21.27-46.14-17.79-70.09,7.8-23.93,25.56-31.35,63.51-16.57,84.78,14.79,21.29,46.16,17.81,70.09-7.75,5.9-6.3,10.81-13.36,14.63-20.74l35.05,2.92c5.02.43,10.74-4.41,12.81-10.82,1.24-3.85.85-7.39-.75-9.69-1.05-1.51-2.61-2.49-4.6-2.65"/><path id="path144" class="cls-21" d="m366.6,342.34c4.57,6.57,6.01,15.5,4.69,24.91-1.03,7.68-3.94,15.69-8.49,23.05-2.13,3.44-4.62,6.71-7.46,9.74-16.29,17.4-37.63,19.75-47.69,5.27-10.04-14.46-5.01-40.29,11.28-57.69,16.27-17.38,37.63-19.75,47.68-5.29"/><path id="path146" class="cls-5" d="m361.2,361.12c-.41.44-.87.81-1.37,1.1-2.11,1.21-4.12.38-4.49-1.84-.01-.07-1.73-9.23-9.78-11.54-7.93-2.27-16.27,5.17-16.35,5.25-1.94,1.75-4.25,1.7-5.17-.13-.92-1.82-.09-4.73,1.85-6.49.49-.45,12.18-10.88,23.62-7.61,11.21,3.21,13.39,15.61,13.48,16.14.28,1.7-.47,3.72-1.78,5.13"/><path id="path148" class="cls-5" d="m364.51,365.26c1.07,1.54.53,4.28-1.2,6.12-1.73,1.85-3.99,2.1-5.06.56-1.07-1.54-.53-4.28,1.2-6.12,1.73-1.85,3.99-2.1,5.06-.56"/><path id="path150" class="cls-15" d="m108.29,863.36l.04,16.57,57.34-33.12v-16.61l-57.38,33.17"/><path id="path152" class="cls-15" d="m180.01,821.93l.04,16.57,57.34-33.12v-16.61l-57.38,33.17"/><path id="path154" class="cls-6" d="m591.74,102.5c-.29,6.04-3.74,10.78-7.71,10.59-3.97-.19-6.96-5.24-6.67-11.28.29-6.04,3.74-10.78,7.71-10.59,3.97.19,6.96,5.24,6.67,11.28"/><path id="path156" class="cls-17" d="m621.13,85.52c-.29,6.04-3.74,10.78-7.71,10.59-3.97-.19-6.96-5.24-6.67-11.28.29-6.04,3.74-10.78,7.71-10.59,3.97.19,6.96,5.24,6.67,11.28"/><path id="path158" class="cls-15" d="m648.9,70.9c-.29,6.04-3.74,10.78-7.71,10.59-3.97-.19-6.96-5.24-6.67-11.28s3.74-10.78,7.71-10.59c3.97.19,6.96,5.24,6.67,11.28"/><path id="path160" class="cls-6" d="m665.02,11.64c-3.49-1.55-7.49-1.91-11.41-.76-1.22.4-2.45.89-3.63,1.59l-8.6,4.96L80.6,341.22c-12.09,6.98-19.54,19.87-19.54,33.83v547.85c0,2.23.4,4.32,1.15,6.23,1.44,3.67,4.1,6.62,7.38,8.49l-17.6-8.89c-1.22-.43-2.41-1.08-3.49-1.8l-.18-.07c-2.23-1.48-4.17-3.49-5.51-5.9-1.37-2.41-2.16-5.22-2.16-8.28V364.86c0-13.96,7.45-26.88,19.54-33.86L629.57,2.28c5.69-3.31,12.13-2.81,17.02.17l18.43,9.19"/><path id="path162" class="cls-11" d="m253.14,1100.77c.65-.04,1.26-.07,1.91-.14-.47.07-.97.11-1.48.14h-.43"/><path id="path164" class="cls-11" d="m250.87,1100.84c.75-.04,1.51-.04,2.27-.07-.47.04-.94.07-1.4.07-.18,0-.4.04-.57.04-.11,0-.18,0-.29-.04"/><path id="path166" class="cls-15" d="m490.01,437.14c-.4.64-.86,1.26-1.4,1.82-3.05,3.26-7.05,3.7-8.93.99-1.88-2.71-.94-7.54,2.11-10.8,3.05-3.25,7.05-3.7,8.93-.99.86,1.23,1.13,2.9.88,4.67-.19,1.44-.74,2.94-1.59,4.31h0Zm10.9-3.54l-6.43-.53c.57-2.89.23-5.67-1.16-7.68-2.77-3.98-8.64-3.33-13.12,1.46-4.48,4.79-5.87,11.89-3.1,15.87,2.77,3.99,8.64,3.33,13.12-1.45,1.1-1.18,2.02-2.5,2.74-3.88l6.56.55c.94.08,2.01-.83,2.4-2.03.23-.72.16-1.38-.14-1.81-.2-.28-.49-.47-.86-.5"/><path id="path168" class="cls-6" d="m652.21,1276.47v31.86c0,37.68-50.83,68.22-113.49,68.22s-113.46-30.55-113.46-68.22v-31.86c0,5.48,1.07,10.82,3.12,15.93,11.94,30.01,56.81,52.29,110.34,52.29s98.43-22.28,110.37-52.29c2.05-5.11,3.12-10.45,3.12-15.93"/><path id="path170" class="cls-1" d="m652.21,1276.47c0,5.48-1.07,10.82-3.12,15.93-11.94,30.01-56.84,52.29-110.37,52.29s-98.4-22.28-110.34-52.29c-2.05-5.11-3.12-10.45-3.12-15.93,0-37.68,50.8-68.22,113.46-68.22s113.49,30.54,113.49,68.22"/><path id="path172" class="cls-6" d="m620.14,1247.88v22.85c0,1.48-.11,2.96-.33,4.38-3.68,25-38.58,44.55-81.07,44.55s-77.39-19.56-81.07-44.55c-.22-1.42-.33-2.9-.33-4.38v-22.85c0,3.93.75,7.76,2.23,11.41.59,1.51,1.31,2.99,2.12,4.41,10.96,19.28,41.32,33.11,77.05,33.11s66.09-13.84,77.05-33.11c.81-1.42,1.53-2.9,2.12-4.41,1.45-3.65,2.23-7.48,2.23-11.41"/><path id="path174" class="cls-1" d="m620.13,1247.86c0,3.92-.75,7.77-2.23,11.44-8.57,21.52-40.77,37.5-79.17,37.5s-70.57-15.98-79.14-37.5c-1.47-3.67-2.27-7.52-2.27-11.44,0-23.14,26.74-42.54,62.69-47.61,6.01-.9,12.27-1.33,18.71-1.33,11.16,0,21.77,1.33,31.45,3.78,29.33,7.41,49.95,24.83,49.95,45.17"/><path id="path176" class="cls-1" d="m505.26,1357.64c0,4.17-1.74,7.57-3.88,7.57s-3.88-3.4-3.88-7.57,1.74-7.57,3.88-7.57,3.88,3.39,3.88,7.57"/><path id="path178" class="cls-1" d="m543.19,1361.67c0,4.17-2.4,7.57-5.36,7.57s-5.35-3.4-5.35-7.57,2.4-7.57,5.35-7.57,5.36,3.39,5.36,7.57"/><path id="path180" class="cls-1" d="m579.98,1357.85c0,4.19-2.05,7.57-4.58,7.57s-4.58-3.39-4.58-7.57,2.05-7.57,4.58-7.57,4.58,3.39,4.58,7.57"/><path id="path182" class="cls-8" d="m620.14,1279.52c0,3.9-.78,7.75-2.23,11.41-8.56,21.54-40.79,37.52-79.17,37.52s-70.61-15.99-79.17-37.52c-1.48-3.65-2.23-7.51-2.23-11.41,0-1.48.11-2.96.33-4.41,3.68,25,38.55,44.55,81.07,44.55s77.39-19.56,81.07-44.55c.22,1.45.33,2.93.33,4.41"/><path id="path184" class="cls-11" d="m525.59,1263.41c.65-.04,1.26-.07,1.91-.15-.47.07-.97.11-1.47.15h-.43"/><path id="path186" class="cls-11" d="m523.33,1263.48c.75-.04,1.51-.04,2.27-.07-.47.03-.93.07-1.4.07-.18,0-.4.04-.58.04-.11,0-.18,0-.29-.04"/><path id="path188" class="cls-2" d="m570.16,1065.19v84.43l-17.82-10.28-6.56-3.81-22.51,46.08-1.86,3.81-22.96-13.28,24.74-49.72-26.12-15.06,73.09-42.15"/><path id="path190" class="cls-8" d="m570.16,1065.19h8.42v84.43h-8.42v-84.43"/><path id="path192" class="cls-8" d="m521.41,1185.41h8.46l22.47-46.08-6.56-3.81-24.38,49.89"/><path id="path194" class="cls-21" d="m570.18,1202.7v18.32l-17.81-10.29-6.59-3.78-22.49,46.07-1.87,3.81-22.96-13.28,21.56-43.29c6.01-.9,12.27-1.33,18.71-1.33,11.16,0,21.77,1.33,31.45,3.78"/><path id="path196" class="cls-6" d="m1214.96,363.57v421.25c0,5.33-3.27,9.54-7.59,11.3l-16.66,7.81c2.34-2.16,3.85-5.25,3.85-8.89v-421.25c0-13.21-7.02-25.41-18.46-31.99l-405.41-234.07-4.39-2.56-2.05-1.19c-3.13-1.8-6.55-2.05-9.61-1.15l17.71-9h.04c3.56-2.09,8.17-2.41,12.27-.04l411.85,237.78c11.44,6.62,18.46,18.82,18.46,31.99"/><path id="path198" class="cls-1" d="m1194.55,373.79v421.25c0,3.64-1.51,6.73-3.85,8.89h-.04c-3.71,3.42-9.39,4.5-14.36,1.62l-413-238.53c-10.8-6.23-17.42-17.71-17.42-30.16V114.6c0-5.76,3.81-10.22,8.64-11.73l.11-.04c3.06-.9,6.48-.65,9.61,1.15l2.05,1.19,4.39,2.56,405.41,234.07c11.45,6.59,18.46,18.79,18.46,31.99"/><path id="path200" class="cls-17" d="m769.52,156.74v12.25c-.02,4.08,2.15,7.84,5.68,9.88l80.37,46.4c3.72,2.15,8.38-.54,8.38-4.84v-10.4c0-4.43-2.36-8.52-6.19-10.73l-80.97-46.76c-3.23-1.87-7.27.46-7.27,4.19"/><path id="path202" class="cls-21" d="m769.51,217.51h0c0,7.6,4.04,14.62,10.62,18.42l165.19,95.4c5.79,3.35,13.04-.85,13.02-7.54h0c-.02-7.58-4.07-14.58-10.63-18.37l-165.19-95.4c-5.77-3.33-12.99.83-13,7.49"/><path id="path204" class="cls-7" d="m769.53,270.65v27.24l94.39,54.53.06-27.24-94.46-54.53"/><path id="path206" class="cls-6" d="m1278.8,486.39v298.7c0,1.19-.22,2.34-.58,3.35-.65,1.91-1.84,3.53-3.38,4.68v.04c-3.06,2.38-7.45,2.99-11.3.76l-162.88-94.04c-6.66-3.85-10.8-10.94-10.8-18.68v-296.69c0-4.35,2.63-7.88,6.12-9.43,1.47-.68,3.06-1.01,4.71-.94,1.58.04,3.24.47,4.79,1.37l4.82,2.77,159.1,91.84c5.83,3.35,9.39,9.57,9.39,16.27"/><path id="path208" class="cls-21" d="m863.98,383.31c-.61,0-1.23-.15-1.8-.48l-94.48-54.55c-1.72-.99-2.31-3.19-1.32-4.92.99-1.72,3.2-2.31,4.92-1.32l94.48,54.55c1.72.99,2.31,3.19,1.32,4.92-.67,1.15-1.88,1.8-3.12,1.8"/><path id="path210" class="cls-21" d="m887.56,424.23c-.61,0-1.23-.15-1.79-.48l-118.07-68.16c-1.72-.99-2.31-3.19-1.32-4.92.99-1.72,3.2-2.31,4.92-1.32l118.07,68.16c1.72.99,2.31,3.19,1.32,4.92-.67,1.15-1.88,1.8-3.12,1.8"/><path id="path212" class="cls-21" d="m911.18,465.13c-.61,0-1.23-.15-1.79-.48l-141.69-81.83c-1.72-.99-2.31-3.19-1.32-4.92.99-1.72,3.2-2.32,4.92-1.31l141.69,81.83c1.72.99,2.31,3.19,1.32,4.92-.67,1.15-1.88,1.8-3.12,1.8"/><path id="path214" class="cls-7" d="m769.54,434.27v27.24l94.39,54.53.06-27.24-94.45-54.53"/><path id="path216" class="cls-21" d="m863.99,546.93c-.61,0-1.23-.15-1.8-.48l-94.48-54.55c-1.72-.99-2.31-3.19-1.32-4.92.99-1.72,3.2-2.31,4.92-1.32l94.48,54.55c1.72.99,2.31,3.19,1.32,4.92-.67,1.15-1.88,1.8-3.12,1.8"/><path id="path218" class="cls-21" d="m887.58,587.85c-.61,0-1.23-.15-1.8-.48l-118.07-68.16c-1.72-.99-2.31-3.19-1.32-4.92.99-1.72,3.2-2.31,4.92-1.32l118.07,68.16c1.72.99,2.31,3.19,1.32,4.92-.67,1.15-1.88,1.8-3.12,1.8"/><path id="path220" class="cls-21" d="m911.19,628.75c-.61,0-1.23-.15-1.8-.48l-141.68-81.83c-1.72-.99-2.31-3.19-1.32-4.91.99-1.72,3.2-2.32,4.92-1.32l141.68,81.83c1.72.99,2.31,3.19,1.32,4.91-.67,1.15-1.88,1.8-3.12,1.8"/><path id="path222" class="cls-21" d="m1076.52,587.83c-.61,0-1.23-.15-1.8-.48l-307.02-177.23c-1.72-.99-2.31-3.19-1.32-4.92.99-1.73,3.2-2.31,4.92-1.32l307.02,177.23c1.72.99,2.31,3.19,1.32,4.92-.67,1.16-1.88,1.8-3.12,1.8"/><path id="path224" class="cls-15" d="m939.29,315.94c-.14-1.03.01-2.01.51-2.72,1.1-1.58,3.43-1.32,5.21.58,1.78,1.9,2.33,4.73,1.23,6.31-1.1,1.58-3.43,1.33-5.21-.58-.31-.33-.58-.69-.82-1.06-.5-.8-.82-1.68-.93-2.52Zm-5.94.74c-.17.25-.22.64-.08,1.06.23.7.85,1.23,1.4,1.18l3.83-.32c.42.81.95,1.58,1.6,2.27,2.62,2.79,6.05,3.17,7.66.85,1.61-2.33.8-6.47-1.81-9.27-2.62-2.8-6.05-3.18-7.66-.85-.81,1.17-1.01,2.8-.68,4.48l-3.75.31c-.22.02-.39.12-.5.29"/><path id="path226" class="cls-15" d="m1162,367.5c.2,4.14,2.56,7.39,5.28,7.26s4.77-3.59,4.57-7.73-2.56-7.39-5.28-7.26c-2.72.13-4.77,3.59-4.57,7.73"/><path id="path228" class="cls-17" d="m1141.86,355.87c.2,4.14,2.56,7.39,5.28,7.26,2.72-.13,4.77-3.59,4.57-7.73s-2.56-7.39-5.28-7.26c-2.72.13-4.77,3.59-4.57,7.73"/><path id="path230" class="cls-6" d="m1122.83,345.85c.2,4.14,2.56,7.39,5.28,7.26,2.72-.13,4.77-3.59,4.57-7.73-.2-4.14-2.56-7.39-5.28-7.26s-4.77,3.59-4.57,7.73"/><path id="path232" class="cls-2" d="m1113.5,501.76v86.77c0,6.03,3.22,11.61,8.45,14.62l120.81,69.71c5.53,3.19,12.44-.8,12.44-7.18v-85.63c0-5.62-3-10.81-7.87-13.62l-122.92-70.97c-4.85-2.8-10.91.7-10.91,6.3"/><path id="path234" class="cls-15" d="m1113.5,626.55v9.9c0,1.76.94,3.38,2.46,4.26l22.11,12.77c1.7.98,3.82-.25,3.82-2.2v-9.19c0-1.72-.92-3.31-2.41-4.17l-22.82-13.17c-1.4-.81-3.16.2-3.16,1.82"/><path id="path236" class="cls-21" d="m1184.65,702.43c-.31,0-.61-.08-.9-.24l-71.15-41.08c-.86-.5-1.16-1.6-.66-2.46.5-.86,1.6-1.15,2.46-.66l71.15,41.08c.86.5,1.16,1.6.66,2.46-.33.58-.94.9-1.56.9"/><path id="path238" class="cls-21" d="m1213.83,732.98c-.31,0-.61-.08-.9-.24l-100.34-57.91c-.86-.5-1.16-1.6-.66-2.46.5-.86,1.6-1.15,2.46-.66l100.34,57.92c.86.49,1.16,1.59.66,2.46-.33.57-.94.9-1.56.9"/><path id="path240" class="cls-21" d="m1231.57,756.93c-.31,0-.61-.08-.9-.24l-118.08-68.2c-.86-.5-1.16-1.6-.66-2.46.5-.86,1.6-1.15,2.46-.66l118.08,68.2c.86.49,1.16,1.59.66,2.45-.33.58-.94.9-1.56.9"/><path id="path242" class="cls-1" d="m1122.03,457.35l.45,3.66.76-2.61,5.3-14.86,2.85,1.68,4.7,20.75.66,3.51.59-3.12,4.21-15.15,3.39,2-6.55,21.91-3.08-1.81-5.01-21.74-.38-2.19-.42,1.71-5.72,15.41-3.08-1.81-5.84-29.22,3.37,1.99,3.8,19.89"/><path id="path244" class="cls-1" d="m1155,468.1c-1.31-.77-2.42-.95-3.32-.52-.9.43-1.47,1.44-1.7,3.04l9.52,5.61v-.25c-.07-1.7-.5-3.25-1.28-4.62-.78-1.38-1.86-2.47-3.22-3.27h0Zm.17,17.27c-2.57-1.52-4.66-3.6-6.25-6.25-1.59-2.64-2.37-5.38-2.33-8.22v-.6c.03-1.88.42-3.36,1.16-4.41.74-1.05,1.77-1.62,3.07-1.69,1.3-.07,2.71.33,4.23,1.23,2.47,1.46,4.38,3.4,5.73,5.84,1.34,2.43,2,5.17,1.96,8.2l-.02,1.35-12.88-7.6c.02,1.9.54,3.74,1.58,5.51,1.03,1.77,2.36,3.13,3.97,4.09,1.15.68,2.13,1.02,2.93,1.02.8,0,1.51-.21,2.11-.63l1.96,2.72c-1.63,1.51-4.03,1.32-7.22-.56"/><path id="path246" class="cls-1" d="m1169.88,493.69l-3.25-1.92.37-26.98,3.25,1.92-.37,26.98"/><path id="path248" class="cls-1" d="m1182.74,498.95c1.16.68,2.18.93,3.05.74.88-.19,1.37-.79,1.48-1.78l3.08,1.81c-.07,1.05-.46,1.87-1.16,2.45-.71.57-1.64.81-2.8.72-1.16-.1-2.39-.52-3.67-1.28-2.59-1.53-4.64-3.6-6.14-6.23-1.51-2.63-2.24-5.44-2.2-8.44v-.55c.03-1.85.39-3.29,1.09-4.33.7-1.04,1.69-1.58,2.97-1.63,1.28-.05,2.79.44,4.53,1.46,2.13,1.26,3.89,2.94,5.29,5.05,1.39,2.11,2.13,4.21,2.19,6.3l-3.07-1.81c-.08-1.28-.53-2.57-1.35-3.85-.83-1.28-1.85-2.29-3.09-3.01-1.65-.97-2.94-1.13-3.86-.48-.92.65-1.4,2.1-1.43,4.35v.61c-.04,2.19.39,4.14,1.28,5.86.89,1.71,2.17,3.07,3.84,4.05"/><path id="path250" class="cls-1" d="m1196.46,499.99c-.03,2.11.43,4.09,1.4,5.94.96,1.85,2.26,3.26,3.9,4.23,1.65.97,2.97,1.1,3.96.38.99-.72,1.5-2.25,1.53-4.58.03-2.08-.44-4.06-1.41-5.94-.97-1.88-2.28-3.3-3.92-4.27-1.61-.95-2.91-1.07-3.91-.37-1,.7-1.52,2.23-1.55,4.61h0Zm-3.27-2.31c.03-1.86.41-3.32,1.17-4.37.75-1.05,1.79-1.6,3.1-1.64,1.32-.04,2.81.44,4.49,1.43,2.59,1.53,4.67,3.66,6.25,6.39,1.57,2.73,2.34,5.59,2.3,8.56v.23c-.03,1.85-.41,3.3-1.13,4.35-.73,1.05-1.76,1.6-3.09,1.64-1.33.04-2.85-.44-4.56-1.45-2.57-1.52-4.66-3.65-6.23-6.38-1.58-2.74-2.34-5.58-2.3-8.53v-.23"/><path id="path252" class="cls-1" d="m1217.77,502.77l.06,2.16c1.41-.82,3.31-.53,5.68.87,2.66,1.57,4.46,3.66,5.39,6.26.64-.54,1.48-.79,2.5-.76,1.02.03,2.23.46,3.61,1.27,4.17,2.46,6.26,5.92,6.27,10.37l-.17,12.73-3.25-1.92.17-12.54c.02-1.36-.27-2.56-.89-3.6-.61-1.04-1.65-1.99-3.11-2.85-1.21-.71-2.21-.94-3.02-.69-.81.25-1.29.95-1.43,2.09l-.17,12.61-3.27-1.93.17-12.45c.04-2.76-1.3-4.94-4.01-6.54-2.13-1.26-3.6-1.21-4.41.15l-.19,13.87-3.25-1.92.26-19,3.08,1.81"/><path id="path254" class="cls-1" d="m1253.71,526.29c-1.32-.78-2.42-.95-3.32-.52-.91.43-1.47,1.44-1.71,3.04l9.53,5.62v-.25c-.06-1.71-.49-3.25-1.28-4.63-.78-1.38-1.86-2.47-3.21-3.27h0Zm.17,17.27c-2.58-1.52-4.66-3.6-6.26-6.25-1.59-2.65-2.37-5.38-2.33-8.22v-.6c.03-1.89.41-3.35,1.15-4.41.74-1.06,1.77-1.62,3.07-1.7,1.31-.07,2.72.34,4.23,1.23,2.47,1.46,4.38,3.4,5.73,5.84,1.34,2.44,2,5.17,1.96,8.2l-.02,1.35-12.88-7.59c.02,1.9.55,3.74,1.59,5.51,1.03,1.77,2.35,3.13,3.97,4.09,1.14.68,2.13,1.02,2.93,1.02.8,0,1.51-.21,2.12-.63l1.96,2.72c-1.63,1.5-4.03,1.32-7.22-.56"/><path id="path256" class="cls-8" d="m1289.02,479.55l-.04,298.74c0,3.71-1.91,6.73-4.61,8.49,0,0-.04.03-.11.07-.07.07-.25.14-.43.29-1.98,1.3-8.67,5.72-9,6.01v-.04c1.55-1.15,2.73-2.77,3.38-4.68.36-1.01.58-2.16.58-3.35v-298.7c0-6.69-3.56-12.92-9.39-16.27l-159.1-91.84-4.82-2.77c-1.55-.9-3.2-1.33-4.79-1.37-1.65-.07-3.24.25-4.71.94l8.31-5.72.15-.11c3.13-2.23,7.45-2.77,11.26-.58l163.89,94.61c5.83,3.35,9.43,9.57,9.43,16.27"/><path id="path258" class="cls-1" d="m1258.45,487.79c.13,2.76,1.71,4.92,3.52,4.83s3.17-2.39,3.04-5.15c-.13-2.75-1.71-4.92-3.52-4.83-1.81.09-3.17,2.39-3.04,5.15"/><path id="path260" class="cls-17" d="m1245.03,480.04c.13,2.76,1.71,4.92,3.52,4.83,1.81-.09,3.17-2.39,3.04-5.15-.13-2.76-1.71-4.92-3.52-4.83-1.81.09-3.17,2.39-3.04,5.15"/><path id="path262" class="cls-6" d="m1232.36,473.37c.13,2.76,1.71,4.92,3.52,4.83,1.81-.09,3.17-2.39,3.04-5.15-.13-2.76-1.71-4.92-3.52-4.83-1.81.09-3.17,2.39-3.04,5.15"/><path id="path264" class="cls-23" d="m473.7,466.68s-.54-1.83-1.99-3.28c-1.45-1.45-4.89,1.21-8.88-6.04-3.99-7.25,9.61-12.69,9-17.64-.6-4.95-6.48-17.34-3.94-18.25,2.55-.91,17.66,32.54,19.44,39.29,1.78,6.75-5.47,11.28-5.47,11.28l-8.17-5.36"/><path id="path266" class="cls-6" d="m601.12,935.19s2.13,6.65,2.61,13.78c.48,7.13.8,11.77-3.99,14.47-4.79,2.7-50.92-19.93-47.87-25.93,3.05-6,30.57-4.44,30.57-4.44l18.69,2.12"/><path id="path268" class="cls-22" d="m580.59,934.07c-.64-.43-1.13-.81-1.44-1.07-.26-.2-.39-.32-.39-.32,0,0-.05-.93-.18-2.7-.95-14.62-5.55-85.73-7.24-133.41v-.09c-.41-11.08-.64-20.88-.64-28.42.03-25.29,2.08-42.81,3.8-53.1,1.29-7.54,2.39-11.22,2.39-11.22l11-.52-6.22,11.43,17.42-.81s1.9,11.98,0,34.86c-1.9,22.85-13.54,53.05-12.43,100.84.67,29.03-3.03,62.65-6.06,84.54"/><path id="path270" class="cls-23" d="m622.12,735.06c-1.8,21.9-12.97,50.84-11.92,96.64,1.05,45.79-9.22,103.51-9.22,103.51,0,0-3.13,2.9-9.81,2.76-4.21-.12-8.01-2.15-10.27-3.68,2.83-13.02,12-57.54,10.2-81.29-2.16-28.01,8.55-77.81,12-95.94,3.47-18.13,0-44.46,0-44.46l-7.65-9.72,26.69-1.22s1.82,11.49,0,33.41"/><path id="path272" class="cls-6" d="m577.03,957.53s2.65,8.25,3.24,17.1c.59,8.85.99,14.61-4.95,17.96-5.94,3.35-63.19-24.73-59.41-32.18,3.78-7.45,37.93-5.51,37.93-5.51l23.19,2.63"/><path id="path274" class="cls-23" d="m599.08,748.69c-1.9,22.85-13.54,53.05-12.43,100.84.67,29.03-3.03,62.65-6.06,84.54-.15,1.3-.33,2.55-.49,3.74-.03.09-.03.15-.03.15-1.69,11.98-3.06,19.58-3.06,19.58,0,0-3.26,3.05-10.25,2.87-6.99-.17-12.92-5.51-12.92-5.51,0,0-8.45-126.02-8.43-171.75.03-45.74,6.45-67.14,6.45-67.14l22.63-1.04,7.17-.32,17.42-.81s1.9,11.98,0,34.86"/><path id="path276" class="cls-18" d="m613.47,552.97s20.03,3.93,22.32,26.65c2.29,22.72,13.11,46.99,7.16,55.89-5.95,8.9-14.94,6.46-14.94,6.46,0,0-18.9-65.56-18.75-66.01.15-.46,4.21-22.99,4.21-22.99"/><path id="path278" class="cls-3" d="m603.09,757.04c-3.44,18.13-14.15,67.93-12,95.94,1.8,23.75-7.37,68.27-10.2,81.29-.1-.06-.21-.12-.31-.2,3.03-21.9,6.73-55.51,6.06-84.54-1.11-47.8,10.53-77.99,12.43-100.84,1.75-21.03.28-32.86.03-34.63,1.36-.46,2.7-.99,3.98-1.48,0,0,3.47,26.33,0,44.46"/><path id="path280" class="cls-4" d="m568.72,540.45s2.74,3.61,2.13,10.26-.89,13.82-.89,13.82l20.55,3.2s18.91-15.58,18.75-16.04c-.15-.46-5.11-18.47-5.45-21.8-.34-3.33-22.29-8.2-22.29-8.2l-12.8,18.76"/><path id="path282" class="cls-23" d="m565.77,497.22s-4.56,11.09-6.22,19.3c-2.55,12.63-1.04,24.33-1.04,24.33,0,0,11.09,1.38,26.97-4.82,15.88-6.2,16-39.05,16-39.05,0,0-10.33-10.37-11.16-10.43-.84-.05-24.55,10.67-24.55,10.67"/><path id="path284" class="cls-9" d="m565.77,497.22s15.97,5.36,13.38,16.06c-2.59,10.69-11.15,29.29,11.5,31.89,22.65,2.6,40.7-31.52,36.76-45.81-3.94-14.29-17.47-21.41-23.61-22.87-6.14-1.46-26-5.93-38.03,20.73"/><path id="path286" class="cls-15" d="m648.27,782.36s-17.33,39.56-61.95,27.2c-39.93-11.06-53.06-5.98-53.06-5.98,0,0-3.99-20.46,1.98-53.52,5.95-33.09,9.55-34.06,9.55-34.06,0,0,35.7-16.18,60.33-18.39,8.56-.75,15.75.17,19.66,4.06,15.14,15.05,23.49,80.69,23.49,80.69"/><path id="path288" class="cls-7" d="m648.27,782.36s-4-24.59-16.04-42.34c-12.04-17.75-29.15-27.44-29.15-27.44l2.03-14.97c8.56-.75,15.75.17,19.66,4.06,15.14,15.05,23.49,80.69,23.49,80.69"/><path id="path290" class="cls-2" d="m632.24,659.55c0,13.31-3.42,35.96-9.54,42.11-2.7,2.75-11.25,7.11-22.16,10.91-1.45.49-2.96,1.01-4.5,1.48-12.82,4.06-28.02,7.08-40.72,6.06-20.27-1.59-23.55-22.22-21.58-37.56.26-2.06.64-4,1.04-5.8.41-1.77.87-3.39,1.39-4.81,1.71-4.81,2.49-15.49,2.96-27.9.23-6.58.41-13.69.55-20.65,0,0,3.07-8.5,12.5-9.22,8.85-.67,13.02-8.59,13.52-9.57-.96,1.33-2.15,2.47-3.51,3.34-2.41,1.54-5.37,2.26-8.44,1.77-3.86-.64-8.47-2.7-13.4-7.63.12-2.32.23-4.52.38-6.58.29-3.77.64-7.02,1.1-9.51.2-1.13.44-2.09.7-2.87,1.28-3.91,6.32-8.41,12.76-12.76,9.05-6.15,20.85-12.04,28.77-15.72,8.67-4.06,18.56-5.16,27.76-2.47,6.67,1.94,13.23,5.92,15.98,13.89,4.47,12.94,2.38,63.28,1.22,72.16-1.28,9.69,3.22,8,3.22,21.35"/><path id="path292" class="cls-9" d="m625.26,568.09s-18.33-1.42-18.92-14.86c-.59-13.44,11.4-24.08,9.33-31.59-2.06-7.51-4.17-7.83-4.17-7.83,0,0-1.32-1.14-.46-4.07.89-2.92,2.87-3.41,2.87-3.41,0,0,19.08.59,18.3,17.63-.8,17.04-10.15,22.84-11.29,29.7-1.14,6.88,4.33,14.41,4.33,14.41"/><path id="path294" class="cls-18" d="m565.71,604.59c-.49.99-4.67,8.9-13.52,9.57-9.43.72-12.5,9.22-12.5,9.22.17-7.51.35-14.88.67-21.32,4.93,4.93,9.54,6.99,13.4,7.63,3.07.49,6.03-.23,8.44-1.77,1.36-.87,2.55-2,3.51-3.34"/><path id="path296" class="cls-10" d="m590.24,650.69v33.17c0,24.3-25.81,39.64-47,28.5,15.08-2.02,28.02-14.73,28.02-31.92v-32.43c4.67-.29,8.8-1.35,12.01-2.43,1.44-.48,2.91-.29,4.13.38,1.67.87,2.85,2.63,2.85,4.74"/><path id="path298" class="cls-6" d="m571.25,648v32.43c0,17.19-12.94,29.91-28.02,31.92-.38-.19-.8-.42-1.18-.64l-19.76-11.43c-9.96-5.73-16.07-16.33-16.07-27.83v-60.52c0-3.04,2.21-4.99,4.68-5.31,1.47-.22,3.07.19,4.29,1.35.29.26.54.54.77.86,8.07,11.37,20.14,26.29,32.31,33.65,1.31.8,2.62,1.51,3.94,2.11,6.72,3.07,13.32,3.81,19.05,3.39"/><path id="path300" class="cls-6" d="m574.44,648.11l-6.4-.2c.46-15.23-.3-56.95-9.28-67.06-.85-.96-1.46-.96-1.96-.87-7.43,1.24-21.22,26.85-28.64,44.64l-5.91-2.46c3.21-7.7,19.92-46.22,33.5-48.49,2.08-.35,5.1-.12,7.81,2.93,12.28,13.83,11.07,65.65,10.89,71.51"/><path id="path302" class="cls-2" d="m567.97,597.78c-.06,2.49-.87,4.81-2.2,6.73,0,0-.03.03-.06.09-.96,1.33-2.15,2.47-3.51,3.34-2.41,1.54-5.37,2.26-8.44,1.77-3.86-.64-8.47-2.7-13.4-7.63-.2-.17-.38-.38-.58-.58-1.62-1.68-3.25-3.39-4.87-5.13-15.17-16.27-29.49-34.25-37.91-55.11-7.66-18.94-13.95-38.57-20.97-57.74-1.59-4.41-3.22-8.82-4.81-13.22,0,0,3.89-7.71,11.14-9.17,7.25-1.45,10.15,1.45,10.15,1.45,6.84,17.2,13.28,34.57,21.2,51.33,5.51,11.66,12.96,22.21,21.72,31.67,7.37,8,13.69,16.12,19.87,24.77,1.94,2.76,3.89,5.54,5.86,8.38,2.87,4.18,4.67,7.95,5.65,11.28.93,2.93,1.22,5.54,1.16,7.77"/><path id="path304" class="cls-12" d="m587.42,645.98s-6.95,7.81-16.17,14.92c-10.15,7.85-23.05,14.79-32.53,9.61-18.12-9.96-27.82-63.88-27.82-63.88l1.78-.06c2.2.81,3.06,1.95,3.28,2.27,8.07,11.37,20.14,26.29,32.31,33.65,1.31.8,2.62,1.51,3.94,2.11,6.72,3.07,13.32,3.81,19.05,3.39,4.67-.29,8.8-1.35,12.01-2.43,1.44-.48,2.91-.29,4.13.38l.03.03"/><path id="path306" class="cls-10" d="m543.24,658.83c0,2.16-1.01,3.91-2.25,3.91s-2.25-1.75-2.25-3.91,1.01-3.91,2.25-3.91,2.25,1.75,2.25,3.91"/><path id="path308" class="cls-19" d="m1217.49,911.49v60.63l-35.02-20.21-17.6-70.71,52.61,30.28"/><path id="path310" class="cls-12" d="m1270.01,881.12l-17.5,70.8-35.02,20.21v-60.63l52.52-30.38"/><path id="path312" class="cls-6" d="m1164.87,881.21l52.61-30.37,52.52,30.27-52.52,30.38-52.61-30.28"/><path id="path314" class="cls-15" d="m1212.07,887.58s-1.52-36-20.79-59.32c-19.27-23.32-43.6-56.28-24.34-61.86,19.27-5.58,43.61,21.8,52.22,50.7,8.62,28.9-1.35,70.48-1.35,70.48h-5.75"/><path id="path316" class="cls-24" d="m1215.28,888.19c-.33,0-.6-.27-.61-.61,0-.1-.06-9.84-1.39-22.51-1.23-11.68-3.82-28.29-9.21-41.14-10.31-24.6-23.07-37.76-23.19-37.89-.24-.24-.23-.62,0-.86.24-.24.62-.23.86,0,.13.13,13.05,13.44,23.45,38.27,5.44,12.99,8.06,29.73,9.3,41.49,1.34,12.73,1.4,22.53,1.4,22.62,0,.33-.27.61-.6.61h0"/><path id="path318" class="cls-17" d="m1224.51,887.58s1.23-29.02,16.76-47.83c15.53-18.8,35.15-45.37,19.62-49.87-15.53-4.5-35.15,17.58-42.1,40.87-6.95,23.3,1.09,56.82,1.09,56.82h4.63"/><path id="path320" class="cls-24" d="m1221.92,888.19h0c-.33,0-.61-.27-.6-.61,0-.08.05-7.99,1.13-18.25,1-9.49,3.11-23,7.5-33.48,8.39-20.04,18.83-30.78,18.93-30.89.23-.24.62-.24.86,0,.24.23.24.62,0,.86-.1.11-10.38,10.7-18.68,30.51-8.3,19.82-8.53,50.96-8.54,51.27,0,.33-.27.61-.61.61"/><path id="path322" class="cls-19" d="m746.08,699.48v39.99l-23.1-13.33-11.61-46.63,34.7,19.97"/><path id="path324" class="cls-12" d="m780.72,679.45l-11.55,46.7-23.1,13.33v-39.99l34.64-20.03"/><path id="path326" class="cls-6" d="m711.37,679.51l34.7-20.03,34.64,19.97-34.64,20.03-34.7-19.97"/><path id="path328" class="cls-6" d="m742.5,683.71s-1-23.74-13.71-39.13c-12.71-15.38-28.76-37.12-16.05-40.8,12.71-3.68,28.76,14.38,34.45,33.44,5.69,19.06-.89,46.49-.89,46.49h-3.79"/><path id="path330" class="cls-24" d="m744.62,684.11c-.22,0-.4-.18-.4-.4,0-.06-.04-6.49-.92-14.85-.81-7.7-2.52-18.66-6.07-27.13-6.8-16.23-15.21-24.9-15.3-24.99-.16-.16-.15-.41,0-.57.16-.15.41-.15.56,0,.09.09,8.61,8.86,15.47,25.24,3.59,8.57,5.32,19.61,6.13,27.37.88,8.39.92,14.86.92,14.92,0,.22-.18.4-.4.4h0"/><path id="path332" class="cls-17" d="m750.71,683.71s.81-19.14,11.05-31.54c10.24-12.4,23.18-29.93,12.94-32.89-10.25-2.97-23.19,11.59-27.77,26.96-4.58,15.37.72,37.48.72,37.48h3.06"/><path id="path334" class="cls-24" d="m749,684.11h0c-.22,0-.4-.18-.4-.4,0-.05.03-5.27.74-12.04.66-6.26,2.05-15.17,4.95-22.09,5.54-13.22,12.42-20.3,12.49-20.37.15-.16.41-.16.57,0,.16.15.16.41,0,.57-.07.07-6.85,7.06-12.32,20.12-5.48,13.07-5.63,33.61-5.63,33.82,0,.22-.18.4-.4.4"/></g></g></svg>