<?xml version="1.0" encoding="UTF-8"?><svg id="svg2" xmlns="http://www.w3.org/2000/svg" xmlns:xlink="http://www.w3.org/1999/xlink" viewBox="0 0 1472.2 1213.1" preserveAspectRatio="none"><defs><style>.cls-1{clip-path:url(#clippath);}.cls-2{fill:none;}.cls-2,.cls-3,.cls-4,.cls-5,.cls-6,.cls-7,.cls-8,.cls-9,.cls-10,.cls-11,.cls-12,.cls-13,.cls-14,.cls-15,.cls-16,.cls-17,.cls-18,.cls-19,.cls-20,.cls-21,.cls-22,.cls-23,.cls-24,.cls-25,.cls-26,.cls-27,.cls-28{stroke-width:0px;}.cls-3{fill:url(#linear-gradient);}.cls-29{clip-path:url(#clippath-1);}.cls-30{clip-path:url(#clippath-2);}.cls-4{fill:url(#linear-gradient-2);}.cls-5{fill:url(#linear-gradient-3);}.cls-6{fill:#6084cb;}.cls-7{fill:#4b4ca9;}.cls-8{fill:#4f50ab;}.cls-9{fill:#282b6c;}.cls-10{fill:#d1c9e9;}.cls-11{fill:#c6c1e6;}.cls-12{fill:#e1dfde;}.cls-13{fill:#cfaada;}.cls-14{fill:#908ecf;}.cls-15{fill:#fbcae3;}.cls-16{fill:#6b6abc;}.cls-17{fill:#6567ba;}.cls-18{fill:#f35da6;}.cls-19{fill:#f365a4;}.cls-20{fill:#f1f1fa;}.cls-21{fill:#fef7fa;}.cls-22{fill:#fff;}.cls-23{fill:#e8eef9;}.cls-24{fill:#f03c83;}.cls-25{fill:#fef1f9;}.cls-26{fill:#ebe8e7;}.cls-27{fill:#f797cb;}.cls-28{fill:#f68ac1;}</style><clipPath id="clippath"><path class="cls-2" d="m169.13,973.58s-6.01,21.14-1.98,28.2c4.03,7.05,40.51,3.83,59.85,3.83s24.38-3.22,17.13-10.28c-7.25-7.05-33.47-8.43-47.47-21.75h-27.53Z"/></clipPath><linearGradient id="linear-gradient" x1="-283.48" y1="1626.89" x2="-282.48" y2="1626.89" gradientTransform="translate(23279.46 133639.51) scale(81.54 -81.54)" gradientUnits="userSpaceOnUse"><stop offset="0" stop-color="#462b91"/><stop offset="1" stop-color="#5a369b"/></linearGradient><clipPath id="clippath-1"><path class="cls-2" d="m193.75,968.24s-1.8-13.63-17.81-15.77c-4.38-.58-21.61,18.98-17.23,28.62,4.38,9.64,28.62,23.07,36.21,28.33,7.59,5.26,23.95,17.23,28.91,11.97,4.96-5.26,0-16.06-7.59-23.65-7.59-7.59-22.49-29.5-22.49-29.5Z"/></clipPath><linearGradient id="linear-gradient-2" x1="-282.77" y1="1625.86" x2="-281.77" y2="1625.86" gradientTransform="translate(19337 111262.93) scale(67.83 -67.83)" gradientUnits="userSpaceOnUse"><stop offset="0" stop-color="#4c43a3"/><stop offset="1" stop-color="#525bb2"/></linearGradient><clipPath id="clippath-2"><path class="cls-2" d="m228.87,559.7c.92,8.43-11.24-2.53-15,22.72-3.76,25.25-21.15,31.85-35.54,30.65-14.39-1.2-18.29-21.29-18.29-34.48s-3-34.04,16.79-33.88,48.02-21.88,52.04,14.99Z"/></clipPath><linearGradient id="linear-gradient-3" x1="-282.84" y1="1625.97" x2="-281.84" y2="1625.97" gradientTransform="translate(19688.03 112836.48) scale(69.04 -69.04)" gradientUnits="userSpaceOnUse"><stop offset="0" stop-color="#141e36"/><stop offset="1" stop-color="#374162"/></linearGradient></defs><g id="g8"><g id="g10"><path id="path12" class="cls-12" d="m941.06,1213.1c-56.14,0-106.09-7.79-99.25-25.54,7.13-18.51,36.37-29.02,75.39-34.49-83.7.99-161.63,2.9-220.55,7.29-79.77,5.95-177.6,9.16-270.03,9.16-69.64,0-136.22-1.82-189.68-5.67-19.89,2.89-41.96,3.27-57.65,4.29-5.63.37-11.59.6-17.61.6-30.76,0-63.11-6.07-61.72-31.42,1.45-26.47,45.95-31.2,83.36-34.25,92.12-21.94,263.61-28.85,442.49-28.85,214.09,0,438.75,9.91,550.22,15.83,237.36,12.61,314.64,6.44,292.56,40.09-12.29,18.73-178.8,20.66-363.71,21.64,31.85,2.22,59.52,4.97,77.77,7.03,76.52,8.61,101.43,4.4,94.31,27.39-7.12,22.98-174.69,8.93-248.86,20.64-25.72,4.06-57.26,6.25-87.05,6.25"/><path id="path14" class="cls-11" d="m1380.57,541.95c-9.11,0-16.49-7.38-16.49-16.49s7.39-16.49,16.49-16.49,16.48,7.38,16.48,16.49-7.37,16.49-16.48,16.49Zm-49.58,582.86h99.15V477.89h-99.15v646.93"/><path id="path16" class="cls-14" d="m1331,477.89h19.98v646.93h-19.98V477.89"/><path id="path18" class="cls-7" d="m1368.13,582.46h0c0-2.18-1.76-3.95-3.95-3.95h-33.19v7.9h33.19c2.19,0,3.95-1.77,3.95-3.95"/><path id="path20" class="cls-7" d="m1368.13,717.43h0c0-2.18-1.76-3.95-3.95-3.95h-33.19v7.9h33.19c2.19,0,3.95-1.77,3.95-3.95"/><path id="path22" class="cls-7" d="m1355.69,616.2h0c0-2.18-1.76-3.95-3.95-3.95h-20.75v7.9h20.75c2.19,0,3.95-1.77,3.95-3.95"/><path id="path24" class="cls-7" d="m1355.69,649.95h0c0-2.18-1.76-3.95-3.95-3.95h-20.75v7.9h20.75c2.19,0,3.95-1.77,3.95-3.95"/><path id="path26" class="cls-7" d="m1355.69,683.69h0c0-2.18-1.76-3.95-3.95-3.95h-20.75v7.9h20.75c2.19,0,3.95-1.77,3.95-3.95"/><path id="path28" class="cls-7" d="m1368.13,852.41h0c0-2.18-1.76-3.95-3.95-3.95h-33.19v7.9h33.19c2.19,0,3.95-1.77,3.95-3.95"/><path id="path30" class="cls-7" d="m1355.69,751.18h0c0-2.18-1.76-3.95-3.95-3.95h-20.75v7.9h20.75c2.19,0,3.95-1.77,3.95-3.95"/><path id="path32" class="cls-7" d="m1355.69,784.92h0c0-2.18-1.76-3.95-3.95-3.95h-20.75v7.9h20.75c2.19,0,3.95-1.77,3.95-3.95"/><path id="path34" class="cls-7" d="m1355.69,818.67h0c0-2.18-1.76-3.95-3.95-3.95h-20.75v7.9h20.75c2.19,0,3.95-1.77,3.95-3.95"/><path id="path36" class="cls-7" d="m1368.13,989.69v-4.61c0-.91-.73-1.65-1.64-1.65h-35.5v7.9h35.5c.91,0,1.64-.74,1.64-1.65"/><path id="path38" class="cls-7" d="m1355.69,886.15h0c0-2.18-1.76-3.95-3.95-3.95h-20.75v7.9h20.75c2.19,0,3.95-1.77,3.95-3.95"/><path id="path40" class="cls-7" d="m1355.69,919.9h0c0-2.18-1.76-3.95-3.95-3.95h-20.75v7.9h20.75c2.19,0,3.95-1.77,3.95-3.95"/><path id="path42" class="cls-7" d="m1355.69,953.64h0c0-2.18-1.76-3.95-3.95-3.95h-20.75v7.9h20.75c2.19,0,3.95-1.77,3.95-3.95"/><path id="path44" class="cls-7" d="m1355.69,1021.13h0c0-2.18-1.76-3.95-3.95-3.95h-20.75v7.9h20.75c2.19,0,3.95-1.77,3.95-3.95"/><path id="path46" class="cls-7" d="m1355.69,1054.87h0c0-2.18-1.76-3.95-3.95-3.95h-20.75v7.9h20.75c2.19,0,3.95-1.77,3.95-3.95"/><path id="path48" class="cls-7" d="m1355.69,1088.61h0c0-2.18-1.76-3.95-3.95-3.95h-20.75v7.9h20.75c2.19,0,3.95-1.77,3.95-3.95"/><path id="path50" class="cls-7" d="m1289.97,864.37H256.95V274.33c0-9.29,7.54-16.83,16.83-16.83h999.36c9.3,0,16.83,7.54,16.83,16.83v590.04"/><path id="path52" class="cls-22" d="m306.46,814.87v-507.87h934.01v507.87H306.46"/><path id="path54" class="cls-14" d="m1289.97,864.37H256.95v106.37c0,9.3,7.54,16.83,16.83,16.83h999.36c9.3,0,16.83-7.53,16.83-16.83v-106.37"/><path id="path56" class="cls-14" d="m942.18,1090.81h-337.43c-9.39,0-17,7.61-17,17s7.61,17,17,17h337.43c9.39,0,17-7.61,17-17s-7.61-17-17-17"/><path id="path58" class="cls-17" d="m876.61,987.57h-206.3l-18.13,103.24h242.57l-18.13-103.24"/><path id="path60" class="cls-17" d="m800.88,928.07c0,15.14-12.28,27.42-27.42,27.42s-27.42-12.28-27.42-27.42,12.28-27.42,27.42-27.42,27.42,12.27,27.42,27.42"/><path id="path62" class="cls-23" d="m423.58,814.87V99.17h699.77v715.7H423.58"/><path id="path64" class="cls-24" d="m423.58,99.17v-40.41c0-5.32,4.32-9.64,9.64-9.64h680.49c5.32,0,9.64,4.32,9.64,9.64v40.41H423.58"/><path id="path66" class="cls-22" d="m463.18,99.17v715.7h620.56V99.17H463.18"/><path id="path68" class="cls-22" d="m463.18,99.17v310.69h620.56V99.17H463.18"/><path id="path70" class="cls-20" d="m463.18,409.86v234.24h620.56v-234.24H463.18"/><path id="path72" class="cls-28" d="m493.06,73.64c0,8.25-6.69,14.94-14.94,14.94s-14.94-6.69-14.94-14.94,6.69-14.94,14.94-14.94,14.94,6.69,14.94,14.94"/><path id="path74" class="cls-28" d="m725.74,81.11h-205.44c-4.13,0-7.47-3.35-7.47-7.47s3.34-7.47,7.47-7.47h205.44c4.13,0,7.47,3.34,7.47,7.47s-3.35,7.47-7.47,7.47"/><path id="path76" class="cls-11" d="m623.93,586.52h-107.18c-4.13,0-7.47-3.35-7.47-7.47s3.34-7.47,7.47-7.47h107.18c4.13,0,7.47,3.35,7.47,7.47s-3.34,7.47-7.47,7.47"/><path id="path78" class="cls-11" d="m623.93,617.54h-107.18c-4.13,0-7.47-3.35-7.47-7.47s3.34-7.47,7.47-7.47h107.18c4.13,0,7.47,3.35,7.47,7.47s-3.34,7.47-7.47,7.47"/><path id="path80" class="cls-11" d="m997.45,215.59h-151.69c-4.13,0-7.47-3.34-7.47-7.47s3.34-7.47,7.47-7.47h151.69c4.13,0,7.47,3.35,7.47,7.47s-3.35,7.47-7.47,7.47"/><path id="path82" class="cls-11" d="m952.93,246.22h-107.18c-4.13,0-7.47-3.35-7.47-7.47s3.34-7.47,7.47-7.47h107.18c4.13,0,7.47,3.34,7.47,7.47s-3.35,7.47-7.47,7.47"/><path id="path84" class="cls-11" d="m969.15,276.85h-123.4c-4.13,0-7.47-3.34-7.47-7.47s3.34-7.47,7.47-7.47h123.4c4.13,0,7.47,3.34,7.47,7.47s-3.34,7.47-7.47,7.47"/><path id="path86" class="cls-28" d="m963.06,326.65h-111.21c-7.49,0-13.56-6.07-13.56-13.56s6.07-13.56,13.56-13.56h111.21c7.49,0,13.56,6.07,13.56,13.56s-6.07,13.56-13.56,13.56"/><path id="path88" class="cls-28" d="m977.21,789.06h-111.21c-7.49,0-13.56-6.07-13.56-13.56s6.07-13.56,13.56-13.56h111.21c7.49,0,13.56,6.07,13.56,13.56s-6.07,13.56-13.56,13.56"/><path id="path90" class="cls-26" d="m818.87,789.06h-248.94c-7.49,0-13.56-6.07-13.56-13.56s6.07-13.56,13.56-13.56h248.94c7.49,0,13.56,6.07,13.56,13.56s-6.07,13.56-13.56,13.56"/><path id="path92" class="cls-11" d="m827.05,586.52h-107.18c-4.13,0-7.47-3.35-7.47-7.47s3.34-7.47,7.47-7.47h107.18c4.13,0,7.47,3.35,7.47,7.47s-3.35,7.47-7.47,7.47"/><path id="path94" class="cls-11" d="m827.05,617.54h-107.18c-4.13,0-7.47-3.35-7.47-7.47s3.34-7.47,7.47-7.47h107.18c4.13,0,7.47,3.35,7.47,7.47s-3.35,7.47-7.47,7.47"/><path id="path96" class="cls-11" d="m850.92,701.14h-154.91c-4.12,0-7.47-3.34-7.47-7.47s3.35-7.47,7.47-7.47h154.91c4.13,0,7.47,3.34,7.47,7.47s-3.35,7.47-7.47,7.47"/><path id="path98" class="cls-11" d="m827.05,732.16h-107.18c-4.13,0-7.47-3.34-7.47-7.47s3.34-7.47,7.47-7.47h107.18c4.13,0,7.47,3.34,7.47,7.47s-3.35,7.47-7.47,7.47"/><path id="path100" class="cls-11" d="m1030.21,586.52h-107.18c-4.13,0-7.47-3.35-7.47-7.47s3.34-7.47,7.47-7.47h107.18c4.12,0,7.47,3.35,7.47,7.47s-3.35,7.47-7.47,7.47"/><path id="path102" class="cls-11" d="m1030.21,617.54h-107.18c-4.13,0-7.47-3.35-7.47-7.47s3.34-7.47,7.47-7.47h107.18c4.12,0,7.47,3.35,7.47,7.47s-3.35,7.47-7.47,7.47"/><path id="path104" class="cls-28" d="m1076.27,81.11h-44.76c-4.13,0-7.47-3.35-7.47-7.47s3.34-7.47,7.47-7.47h44.76c4.13,0,7.47,3.34,7.47,7.47s-3.34,7.47-7.47,7.47"/><path id="path106" class="cls-28" d="m644.91,548.92h-149.14c-1.49,0-2.71-1.21-2.71-2.71v-97.81c0-1.49,1.21-2.7,2.71-2.7h149.14c1.49,0,2.7,1.21,2.7,2.7v97.81c0,1.49-1.21,2.71-2.7,2.71"/><path id="path108" class="cls-11" d="m848.03,548.92h-149.14c-1.49,0-2.7-1.21-2.7-2.71v-97.81c0-1.49,1.21-2.7,2.7-2.7h149.14c1.49,0,2.7,1.21,2.7,2.7v97.81c0,1.49-1.21,2.71-2.7,2.71"/><path id="path110" class="cls-28" d="m1051.19,548.92h-149.14c-1.49,0-2.71-1.21-2.71-2.71v-97.81c0-1.49,1.21-2.7,2.71-2.7h149.14c1.49,0,2.71,1.21,2.71,2.7v97.81c0,1.49-1.21,2.71-2.71,2.71"/><path id="path112" class="cls-13" d="m714.49,386.43c0,3.28-2.66,5.95-5.95,5.95s-5.95-2.66-5.95-5.95,2.66-5.95,5.95-5.95,5.95,2.66,5.95,5.95"/><path id="path114" class="cls-13" d="m746.95,386.43c0,3.28-2.66,5.95-5.95,5.95s-5.95-2.66-5.95-5.95,2.66-5.95,5.95-5.95,5.95,2.66,5.95,5.95"/><path id="path116" class="cls-13" d="m779.41,386.43c0,3.28-2.66,5.95-5.95,5.95s-5.95-2.66-5.95-5.95,2.66-5.95,5.95-5.95,5.95,2.66,5.95,5.95"/><path id="path118" class="cls-13" d="m811.87,386.43c0,3.28-2.66,5.95-5.95,5.95s-5.95-2.66-5.95-5.95,2.66-5.95,5.95-5.95,5.95,2.66,5.95,5.95"/><path id="path120" class="cls-13" d="m844.33,386.43c0,3.28-2.66,5.95-5.95,5.95s-5.95-2.66-5.95-5.95,2.66-5.95,5.95-5.95,5.95,2.66,5.95,5.95"/><path id="path122" class="cls-25" d="m463.18,409.86h520.29c-4.85-9.99-11.12-19.06-19.53-26.49-19.79-17.48-47.36-22.2-73.17-27.75-31.13-6.69-61.8-15.57-91.69-26.55-15.26-5.6-31.08-12.31-40.92-25.25-9.25-12.16-11.82-28.02-13.28-43.23-2.51-26.22-2.59-52.69-6.58-78.73-3.99-26.04-12.26-52.17-29.08-72.44-3.05-3.67-6.38-7.09-9.93-10.25h-236.1v310.69"/><path id="path124" class="cls-14" d="m708.55,271.01c0,45.85-37.17,83.01-83.01,83.01s-83.01-37.16-83.01-83.01,37.16-83.01,83.01-83.01,83.01,37.16,83.01,83.01"/><path id="path126" class="cls-24" d="m767.52,207.85c0,29.19-23.66,52.85-52.85,52.85s-52.85-23.66-52.85-52.85,23.66-52.85,52.85-52.85,52.85,23.66,52.85,52.85"/><path id="path128" class="cls-22" d="m1204.36,952.23c-12.99,0-23.56-10.3-23.56-22.97v-228.78c0-12.67,10.57-22.97,23.56-22.97h244.28c12.99,0,23.56,10.3,23.56,22.97v228.78c0,12.66-10.57,22.97-23.56,22.97h-244.28"/><path id="path130" class="cls-19" d="m1210.09,697.57c-4.88,0-8.83,3.7-8.83,8.27v218.06c0,4.57,3.95,8.27,8.83,8.27h232.83c4.87,0,8.83-3.7,8.83-8.27v-218.06c0-4.57-3.96-8.27-8.83-8.27h-232.83"/><path id="path132" class="cls-15" d="m1201.26,878.48v45.42c0,4.57,3.95,8.27,8.83,8.27h163.05l-102.49-166.25-69.39,112.56"/><path id="path134" class="cls-28" d="m1449.81,929.04l-67.45-109.44-69.4,112.56h129.96c2.79,0,5.28-1.22,6.89-3.12"/><path id="path136" class="cls-21" d="m1421.73,751.04c0,12.95-10.51,23.45-23.45,23.45s-23.45-10.5-23.45-23.45,10.49-23.45,23.45-23.45,23.45,10.5,23.45,23.45"/><path id="path138" class="cls-28" d="m1390.8,157.57c0-54.54-44.21-98.75-98.75-98.75s-98.75,44.21-98.75,98.75c0,17.19,4.86,34.16,13.55,48.97,4.39,7.49,9.76,14.17,15.7,20.47,5.67,6.02,13.27,9.93,18.67,16.14,4.66,5.37,5.22,11.85,7.47,18.27,2.76,7.87,10.18,13.13,18.51,13.13h49.78c8.3,0,15.7-5.22,18.49-13.04,1.91-5.38,3.23-12.24,6.2-17.07,3.72-6.01,12.03-9.1,17.13-13.97,6.55-6.25,12.35-13.01,17.11-20.74,9.59-15.59,14.89-33.84,14.89-52.17"/><path id="path140" class="cls-22" d="m1321.79,95.93c-1.02,0-2.06-.2-3.06-.63-2.26-.97-4.6-1.83-6.95-2.54-4.09-1.25-6.4-5.58-5.15-9.67,1.25-4.09,5.59-6.4,9.67-5.15,2.89.88,5.77,1.93,8.55,3.13,3.93,1.69,5.75,6.25,4.06,10.18-1.26,2.93-4.12,4.69-7.12,4.69"/><path id="path142" class="cls-22" d="m1367.55,165.32c-4.28,0-7.75-3.47-7.75-7.75,0-18.77-7.53-36.24-21.21-49.19-3.11-2.94-3.24-7.85-.29-10.96,2.93-3.11,7.84-3.24,10.95-.3,16.56,15.68,26.07,37.71,26.07,60.45,0,4.28-3.48,7.75-7.76,7.75"/><path id="path144" class="cls-14" d="m1332.96,168.45c-2.28-.39-4.44,1.13-4.84,3.41l-.4,2.33-8.1,5.37c-3.28,2.18-7.63,2.09-10.82-.22l-6.12-4.42c-6.19-4.48-14.55-4.52-20.79-.11l-6.56,4.64c-3.19,2.25-7.51,2.31-10.76.14l-7.35-4.91-.52-3.08c-.38-2.28-2.54-3.82-4.82-3.43-2.28.38-3.82,2.54-3.44,4.82l17.71,105.64c.34,2.05,2.11,3.49,4.12,3.49.23,0,.46-.02.7-.06,2.28-.38,3.82-2.54,3.43-4.82l-15.29-91.23.8.54c2.98,1.99,6.45,2.99,9.92,2.99s7.26-1.09,10.32-3.26l6.56-4.64c3.32-2.35,7.76-2.32,11.05.06l6.12,4.42c6,4.34,14.18,4.5,20.35.41l1.51-1-15.85,91.69c-.39,2.28,1.13,4.44,3.41,4.84.24.04.48.06.72.06,2,0,3.77-1.44,4.12-3.47l18.21-105.36c.4-2.28-1.13-4.44-3.41-4.84"/><path id="path146" class="cls-14" d="m1320.09,274.56h-56.07c-4.19,0-7.59,3.4-7.59,7.59v27.15c0,4.19,3.4,7.59,7.59,7.59h6.84c2.53,9.34,11.05,16.22,21.19,16.22s18.66-6.88,21.19-16.22h6.84c4.19,0,7.59-3.4,7.59-7.59v-27.15c0-4.19-3.4-7.59-7.59-7.59"/><path id="path148" class="cls-28" d="m1292.47,39.05c-2.5,0-4.52-2.02-4.52-4.52V4.52c0-2.5,2.02-4.52,4.52-4.52s4.52,2.02,4.52,4.52v30.01c0,2.5-2.02,4.52-4.52,4.52"/><path id="path150" class="cls-28" d="m1358.2,59.11c-1.13.24-2.35.04-3.4-.64-2.08-1.37-2.67-4.17-1.31-6.25l16.43-25.12c1.36-2.09,4.16-2.68,6.25-1.31,2.09,1.37,2.68,4.17,1.31,6.25l-16.43,25.12c-.68,1.05-1.72,1.71-2.85,1.95"/><path id="path152" class="cls-28" d="m1421.96,91.4l-26.39,14.32c-2.19,1.19-4.93.38-6.12-1.82-1.2-2.19-.39-4.94,1.81-6.13l26.37-14.32c2.2-1.19,4.93-.38,6.13,1.82,1.19,2.19.37,4.94-1.81,6.13"/><path id="path154" class="cls-28" d="m1228.31,59.11c1.13.24,2.36.04,3.4-.64,2.09-1.37,2.67-4.17,1.31-6.25l-16.42-25.12c-1.37-2.09-4.17-2.68-6.26-1.31-2.09,1.37-2.67,4.17-1.31,6.25l16.42,25.12c.68,1.05,1.73,1.71,2.86,1.95"/><path id="path156" class="cls-28" d="m1164.55,91.4l26.38,14.32c2.19,1.19,4.94.38,6.13-1.82,1.19-2.19.38-4.94-1.81-6.13l-26.38-14.32c-2.19-1.19-4.94-.38-6.13,1.82-1.19,2.19-.38,4.94,1.82,6.13"/><path id="path158" class="cls-21" d="m450.35,578.58l76.53-70.11c2.61-2.4.44-6.71-3.04-6.04l-101.88,19.79,28.4,56.36"/><path id="path160" class="cls-24" d="m421.82,522.28l28.4,56.36-377.44,190.2-28.4-56.36,377.44-190.2"/><path id="path162" class="cls-28" d="m442.52,563.35l7.7,15.29-377.44,190.2-7.7-15.29,377.44-190.2"/><path id="path164" class="cls-28" d="m421.82,522.28l7.7,15.29L52.09,727.76l-7.7-15.29,377.44-190.2"/><path id="path166" class="cls-14" d="m3.38,768.48h0c7.84,15.56,26.82,21.82,42.38,13.98l27.02-13.62-28.4-56.36-27.03,13.62c-15.56,7.84-21.82,26.82-13.98,42.38"/><path id="path168" class="cls-17" d="m73.31,697.9l28.4,56.36-28.92,14.57-28.4-56.36,28.92-14.57"/><path id="path170" class="cls-24" d="m523.84,502.43l-36.29,7.05c3.86,7.46,8.41,16.3,12.21,23.84l27.12-24.85c2.61-2.4.44-6.71-3.04-6.04"/><path id="path172" class="cls-7" d="m194.23,1137.33h0c8.63,0,15.46-7.29,14.91-15.9l-5.03-77.67h-19.76l-5.03,77.67c-.56,8.61,6.28,15.9,14.91,15.9"/><path id="path174" class="cls-7" d="m258.95,1144.27h0c10.24,0,16.95-10.7,12.49-19.92l-38.17-78.97h-19.76l32.38,89.72c1.99,5.5,7.21,9.17,13.05,9.17"/><path id="path176" class="cls-7" d="m124.9,1144.27h0c-10.24,0-16.95-10.7-12.5-19.92l38.18-78.97h19.76l-32.38,89.72c-1.99,5.5-7.21,9.17-13.05,9.17"/><path id="path178" class="cls-8" d="m119.67,1010.53v25.13c0,9.03,33.58,16.36,75,16.36s75-7.32,75-16.36v-25.13H119.67"/><path id="path180" class="cls-16" d="m119.67,1010.53c0,9.03,33.58,16.36,75,16.36s75-7.32,75-16.36-33.58-16.36-75-16.36-75,7.32-75,16.36"/><g id="g182"><g class="cls-1"><g id="g184"><path id="path196" class="cls-3" d="m169.13,973.58s-6.01,21.14-1.98,28.2c4.03,7.05,40.51,3.83,59.85,3.83s24.38-3.22,17.13-10.28c-7.25-7.05-33.47-8.43-47.47-21.75h-27.53"/></g></g></g><path id="path198" class="cls-24" d="m136.56,774.44s0,21.57,11.47,50.47c11.47,28.91,13.77,50.93,13.77,50.93,0,0,.46,38.54,2.29,61.95,1.84,23.4,5.05,35.79,5.05,35.79h27.53s14.22-78.01,14.68-117.47c.46-39.46-24.04-94.98-24.04-94.98l-50.76,13.31"/><path id="path200" class="cls-18" d="m167.3,768.01s-5.97,25.7,8.72,42.67c14.68,16.98,31.2,60.11,31.2,60.11,0,0-15.42,7.34-20.56,33.04-5.14,25.7-11.1,45.89-11.1,45.89,0,0,16.98,2.75,21.11,11.93,0,0,44.05-56.9,51.85-88.1,7.8-31.2-10.09-99.11-10.09-99.11l-71.12-6.42"/><path id="path202" class="cls-27" d="m120.31,697.01s-7.87,19.91-4.17,25c3.7,5.09,23.96,14.35,23.96,14.35v-37.04l-19.79-2.31"/><path id="path204" class="cls-7" d="m164.06,632.77s-27.44,4.08-41.43,44.79c-5.09,14.82-6.48,21.3-6.48,21.3,0,0,12.97,6.42,26.86,7.38,13.89.96,21.06-73.47,21.06-73.47"/><path id="path206" class="cls-27" d="m196.62,544.86c28.92-2.36,32.89,22.28,32.18,44.56-.71,22.28-4.52,33.95-16.05,34.31-11.53.35-49.73-16.27-48.66-44.56,1.06-28.29,15.21-32.89,32.54-34.31"/><path id="path208" class="cls-27" d="m207.14,617.17s-3.27,14.85-1.51,20.89c1.76,6.04-16.61,6.54-27.68,2.77-11.07-3.77-6.88-3.91-3.52-18.62,3.35-14.71,2.52-20.38,2.52-20.38l30.2,15.35"/><path id="path210" class="cls-27" d="m271.11,678.4l23.42,12.33,16.64-40.37,16.02,7.7s4.35,54.64-26.81,61.32c-8.63,1.85-50.23-19.11-50.23-19.11l20.95-21.88"/><path id="path212" class="cls-7" d="m209.57,633.68c37.15,15.17,69.57,43.88,69.57,43.88,0,0-1.08,19-14.36,33.34l-50.01-19.91-5.2-57.31"/><path id="path214" class="cls-7" d="m188.95,627.92c-45.64-2.64-48.18,40.35-54.07,96.33-3.58,34.04-5.37,53.75-3.58,56.13,1.79,2.39,23.29-5.97,50.76-4.78,27.47,1.19,54.34,10.15,60.31,8.96,5.97-1.19-5.97-85.39-7.17-101.52-1.19-16.12-8.3-52.93-46.25-55.13"/><path id="path216" class="cls-27" d="m311.17,650.36s-4.59-6.19-4.75-10.94c-.17-4.74-2.54-12.2-4.91-13.56-2.37-1.35,3.56-6.95,9.15,0,5.59,6.95,3.56,11.09,7.96,10.54,4.41-.54,21.58-9.27,28.19-13.16,6.61-3.9,14.23-2.98,9.15,9.53-5.08,12.5-23.06,23.77-28.76,25.29l-16.02-7.7"/><g id="g218"><g class="cls-29"><g id="g220"><path id="path232" class="cls-4" d="m193.75,968.24s-1.8-13.63-17.81-15.77c-4.38-.58-21.61,18.98-17.23,28.62,4.38,9.64,28.62,23.07,36.21,28.33,7.59,5.26,23.95,17.23,28.91,11.97,4.96-5.26,0-16.06-7.59-23.65-7.59-7.59-22.49-29.5-22.49-29.5"/></g></g></g><g id="g234"><g class="cls-30"><g id="g236"><path id="path248" class="cls-5" d="m228.87,559.7c.92,8.43-11.24-2.53-15,22.72-3.76,25.25-21.15,31.85-35.54,30.65-14.39-1.2-18.29-21.29-18.29-34.48s-3-34.04,16.79-33.88,48.02-21.88,52.04,14.99"/></g></g></g><path id="path250" class="cls-14" d="m209.57,566.79s-18.16,36.98-54.23,28.59c-36.07-8.39.2-32.01.2-32.01l54.03,3.43"/><path id="path252" class="cls-14" d="m231.09,557.9s-15.59,12.29-45.87,10.79-29.68-5.33-29.68-5.33c0,0-5.1-40.84,35.68-40.84s39.87,35.38,39.87,35.38"/><path id="path254" class="cls-27" d="m217.17,582.42s-7.03-11.32-10.54-2.73c-3.51,8.59,1.88,18.81,9.45,19.28l1.09-16.55"/><path id="path256" class="cls-27" d="m968.87,885.38s-4.19,7.49-12.99,7.49-11.07,7.72-12.77,3.72c-1.7-4,2.55-10.19,7.38-11.21,4.82-1.02,11.79-11.43,18.38-10.91,6.59.53,0,10.91,0,10.91"/><path id="path258" class="cls-27" d="m968.87,870.27s-20-1.88-26.14,0c-6.14,1.88-14.94,18.47-12.95,21.24,1.99,2.77,8.7,4.59,13,2.4,4.31-2.18,5.41-11.83,9.13-11.76s19.53-2.36,19.53-2.36l-2.56-9.53"/><path id="path260" class="cls-27" d="m1078.67,827.18c-5.07,4.28-34.97,36.27-44.12,43.09-9.15,6.82-65.68,0-65.68,0v15.11s45.32,11.21,59.94,11.21,41.42-19.01,41.42-19.01l8.44-50.4"/><path id="path262" class="cls-27" d="m1231.32,1106.81s19.37-11,24.25,5.43c4.88,16.43,2.66,28.87,6.66,41.74,3.99,12.87,2.75,30.1-8.43,17.31-6.21-7.1-20.68-40.65-31.65-49.4l9.17-15.07"/><path id="path264" class="cls-27" d="m1121.93,1030.17s0,40.61,27.51,59.61c27.51,19,72.71,32.1,72.71,32.1l9.17-15.07s-47.16-36.68-57.64-45.85c-10.48-9.17-11.13-47.16-11.13-47.16l-40.61,16.38"/><path id="path266" class="cls-27" d="m1070.84,1017.73s-32.75,49.12-45.2,131l19,5.24s18.99-31.44,23.58-55.68c4.58-24.23,49.78-67.47,49.78-67.47l-47.16-13.1"/><path id="path268" class="cls-27" d="m1044.64,1153.97s8.62,23.08-10.08,24.85c-18.71,1.78-53.33,3.99-61.77,0-8.43-4,36.85-15.98,42.62-19.98,5.77-3.99,10.24-10.11,10.24-10.11l19,5.24"/><path id="path270" class="cls-9" d="m1050.99,752.93s-4.9,39.93-7.36,74.25c0,0,18.91-10.51,43.78-10.51l-6.31-72.85-30.12,9.11"/><path id="path272" class="cls-27" d="m1087.81,731.42c-33.05,2.68-30.2,36.12-29.01,57.43,1.19,21.32,19.54,26.05,39.67,13.62,20.13-12.43,24.28-27.83,23.09-40.85-1.18-13.03-11.84-31.97-33.75-30.2"/><path id="path274" class="cls-6" d="m1089.96,822.85s-15.34,2.1-17.78,11.85c-2.44,9.75-18.67,43.86-6.66,61.89,12.02,18.03,18.35,20.47,18.35,31.19s-45.32,43.36-49.22,84.31c-1.95,20.47,23.39,15.6,40.45,19.01,17.06,3.41,26.31,24.37,62.38,13.16,36.06-11.21,78.95-15.11,87.23-36.55,8.28-21.44-17.55-33.63-34.6-46.78-17.06-13.16-49.22-36.06-49.22-49.71s20.17-79.28-3.41-84.03c-23.58-4.75-47.53-4.33-47.53-4.33"/><path id="path276" class="cls-27" d="m1082.07,804.73s6.15,11.91,5.35,19.01c-.81,7.09-6.2,3.69-7.9,8.51-1.7,4.82-2.84,26.39,17.59,23.83,20.43-2.55,27.74-15.61,27.52-24.12-.28-10.73-11.35-6.52-13.33-12.2-1.99-5.67-4.26-30.36-4.26-30.36l-24.97,15.32"/><path id="path278" class="cls-27" d="m1140.9,834.21c24.03,16.28-23.91,67.25-39.24,77.97-15.34,10.72-67.1-5.36-67.1-5.36,0,0-1.36-9.75,5.95-13.16,0,0,40.94-.98,52.15-4.39,11.21-3.41,33.14-65.3,48.24-55.07"/><path id="path280" class="cls-22" d="m1161.54,1066.11l-337.84-87.46c-3.42-.88-5.47-4.37-4.59-7.79l27.87-107.65c.88-3.42,4.37-5.47,7.79-4.58l337.84,87.46c3.42.88,5.47,4.37,4.58,7.79l-27.87,107.65c-.88,3.42-4.37,5.47-7.79,4.58"/><path id="path282" class="cls-18" d="m933.84,991.23l-90.32-23.39c-2.25-.58-3.61-2.88-3.02-5.13l21.23-81.99c.58-2.25,2.88-3.61,5.13-3.02l90.32,23.38c2.25.58,3.61,2.88,3.02,5.14l-21.23,81.99c-.58,2.25-2.88,3.61-5.14,3.02"/><path id="path284" class="cls-10" d="m1134.34,971.68c-.53,0-1.07-.07-1.61-.21l-153.23-39.67c-3.43-.89-5.49-4.38-4.6-7.81.89-3.43,4.39-5.49,7.81-4.6l153.23,39.67c3.43.89,5.48,4.39,4.6,7.81-.75,2.89-3.35,4.8-6.2,4.8"/><path id="path286" class="cls-10" d="m1046.06,978.83c-.53,0-1.07-.07-1.61-.21l-72.23-18.7c-3.43-.89-5.49-4.38-4.6-7.81.89-3.43,4.39-5.48,7.81-4.6l72.23,18.7c3.43.89,5.48,4.38,4.6,7.81-.75,2.89-3.35,4.8-6.2,4.8"/><path id="path288" class="cls-10" d="m1039.87,1002.75c-.53,0-1.07-.07-1.61-.21l-72.24-18.7c-3.43-.89-5.48-4.38-4.6-7.81.89-3.43,4.39-5.48,7.81-4.6l72.24,18.7c3.43.89,5.48,4.38,4.6,7.81-.75,2.89-3.35,4.8-6.2,4.8"/><path id="path290" class="cls-27" d="m1040.51,893.66s-25.03-6.41-34.12,2.92c-9.08,9.33-11.07,14.73-4.82,17.85,6.24,3.12,12.91,5.7,17.66,1.43,4.76-4.27,11.25-10.24,15.33-9.05,4.08,1.19,5.95-13.16,5.95-13.16"/><path id="path292" class="cls-27" d="m1038.89,901.25s2.56,5.69-7.81,13.47c-4.54,3.41-9.31-.13-1.82-6.73,7.49-6.6,9.63-6.73,9.63-6.73"/><path id="path294" class="cls-9" d="m1093.02,758.88s-38.52,5.25-49.38-2.8c0,0,7.36-45.88,51.13-45.88,22.06,0,35.02,17.86,41.68,32.92,6.66,15.06,10.51,66.13,10.51,66.13,0,0-32.57,19.67-47.28,19.67,0,0,5.25-49.73-6.65-70.05"/><path id="path296" class="cls-24" d="m994.18,1166.62c3.2,11.37,41.83-2.05,51.47-9.16,0,0,4.56,9.22,0,22-4.56,12.78-76.64,8.17-76.99,1.6-.36-6.57,25.52-14.44,25.52-14.44"/><path id="path298" class="cls-24" d="m1231.32,1106.81s18.25-13.82,25.24,3.44c6.99,17.26,12.83,65.13,7.75,66.56-5.08,1.44-11.19-5.61-14.57-11.6,0,0,5.39-1.14,3.33-13.47-2.05-12.33-8.36-45.29-21.75-44.94"/></g></g></svg>